<svg xmlns="http://www.w3.org/2000/svg" xmlns:svg="http://www.w3.org/2000/svg" xmlns:xlink="http://www.w3.org/1999/xlink" id="svg715" width="136" height="246" version="1.1" viewBox="0 0 136 246"><metadata id="metadata717"/><defs id="defs286"><linearGradient id="color-primary"><stop id="stop32" offset="1" stop-color="#FFDEDE"/></linearGradient><clipPath id="clipPath2990" clipPathUnits="userSpaceOnUse"><rect style="opacity:.03;fill:#000;stroke-width:2;stroke-linecap:round;stroke-linejoin:round;paint-order:stroke fill markers" id="rect2992" width="36" height="132" x="432" y="48" rx="0" ry="0"/></clipPath><clipPath id="clipPath2996" clipPathUnits="userSpaceOnUse"><rect style="opacity:.03;fill:#000;stroke-width:2;stroke-linecap:round;stroke-linejoin:round;paint-order:stroke fill markers" id="rect2998" width="36" height="132" x="432" y="48" rx="0" ry="0"/></clipPath><clipPath id="clipPath3002" clipPathUnits="userSpaceOnUse"><rect style="opacity:.03;fill:#000;stroke-width:2;stroke-linecap:round;stroke-linejoin:round;paint-order:stroke fill markers" id="rect3004" width="36" height="132" x="432" y="48" rx="0" ry="0"/></clipPath><clipPath id="clipPath3037" clipPathUnits="userSpaceOnUse"><rect style="opacity:.03;fill:#000;stroke-width:2;stroke-linecap:round;stroke-linejoin:round;paint-order:stroke fill markers" id="rect3039" width="36" height="132" x="432" y="48" rx="0" ry="0"/></clipPath><clipPath id="clipPath3276" clipPathUnits="userSpaceOnUse"><rect style="opacity:.03;fill:#000;stroke-width:1.05131;stroke-linecap:round;stroke-linejoin:round;paint-order:stroke fill markers" id="rect3278" width="28" height="18" x="432" y="72" rx="0" ry="0"/></clipPath><clipPath id="clipPath3280" clipPathUnits="userSpaceOnUse"><rect style="opacity:.03;fill:#000;stroke-width:1.05131;stroke-linecap:round;stroke-linejoin:round;paint-order:stroke fill markers" id="rect3282" width="28" height="18" x="432" y="40" rx="0" ry="0"/></clipPath><clipPath id="clipPath3284" clipPathUnits="userSpaceOnUse"><rect style="opacity:.03;fill:#000;stroke-width:1.05131;stroke-linecap:round;stroke-linejoin:round;paint-order:stroke fill markers" id="rect3286" width="28" height="18" x="432" y="8" rx="0" ry="0"/></clipPath><clipPath id="clipPath3288" clipPathUnits="userSpaceOnUse"><rect style="opacity:.03;fill:#000;stroke-width:1.05131;stroke-linecap:round;stroke-linejoin:round;paint-order:stroke fill markers" id="rect3290" width="28" height="18" x="432" y="-24" rx="0" ry="0"/></clipPath><linearGradient id="linearGradient1317" x1="286" x2="306" y1="160" y2="160" gradientUnits="userSpaceOnUse" xlink:href="#color-primary"/><linearGradient id="linearGradient1319" x1="314" x2="334" y1="160" y2="160" gradientUnits="userSpaceOnUse" xlink:href="#color-primary"/><linearGradient id="linearGradient1327" x1="286" x2="306" y1="188" y2="188" gradientUnits="userSpaceOnUse" xlink:href="#color-primary"/><linearGradient id="linearGradient1329" x1="314" x2="334" y1="188" y2="188" gradientUnits="userSpaceOnUse" xlink:href="#color-primary"/><linearGradient id="linearGradient2228" x1="372" x2="388" y1="188" y2="188" gradientUnits="userSpaceOnUse" xlink:href="#color-primary"/><linearGradient id="linearGradient2230" x1="348" x2="364" y1="188" y2="188" gradientUnits="userSpaceOnUse" xlink:href="#color-primary"/><linearGradient id="linearGradient2232" x1="348" x2="364" y1="160" y2="160" gradientUnits="userSpaceOnUse" xlink:href="#color-primary"/><linearGradient id="linearGradient2234" x1="372" x2="388" y1="160" y2="160" gradientUnits="userSpaceOnUse" xlink:href="#color-primary"/><linearGradient id="linearGradient2357" x1="314" x2="334" y1="160" y2="160" gradientUnits="userSpaceOnUse" xlink:href="#color-primary"/><linearGradient id="linearGradient2359" x1="286" x2="306" y1="160" y2="160" gradientUnits="userSpaceOnUse" xlink:href="#color-primary"/><linearGradient id="linearGradient2569" x1="372" x2="388" y1="160" y2="160" gradientUnits="userSpaceOnUse" xlink:href="#color-primary"/><linearGradient id="linearGradient2571" x1="348" x2="364" y1="160" y2="160" gradientUnits="userSpaceOnUse" xlink:href="#color-primary"/><linearGradient id="linearGradient2599" x1="348" x2="364" y1="188" y2="188" gradientUnits="userSpaceOnUse" xlink:href="#color-primary"/><linearGradient id="linearGradient2601" x1="372" x2="388" y1="188" y2="188" gradientUnits="userSpaceOnUse" xlink:href="#color-primary"/><linearGradient id="linearGradient2637" x1="314" x2="334" y1="160" y2="160" gradientUnits="userSpaceOnUse" xlink:href="#color-primary"/><linearGradient id="linearGradient2639" x1="286" x2="306" y1="160" y2="160" gradientUnits="userSpaceOnUse" xlink:href="#color-primary"/><linearGradient id="linearGradient2671" x1="314" x2="334" y1="188" y2="188" gradientUnits="userSpaceOnUse" xlink:href="#color-primary"/><linearGradient id="linearGradient2673" x1="286" x2="306" y1="188" y2="188" gradientUnits="userSpaceOnUse" xlink:href="#color-primary"/><linearGradient id="linearGradient2687" x1="314" x2="334" y1="188" y2="188" gradientUnits="userSpaceOnUse" xlink:href="#color-primary"/><linearGradient id="linearGradient2689" x1="286" x2="306" y1="188" y2="188" gradientUnits="userSpaceOnUse" xlink:href="#color-primary"/><linearGradient id="linearGradient2829" x1="314" x2="334" y1="160" y2="160" gradientUnits="userSpaceOnUse" xlink:href="#color-primary"/><linearGradient id="linearGradient2831" x1="286" x2="306" y1="160" y2="160" gradientUnits="userSpaceOnUse" xlink:href="#color-primary"/><linearGradient id="linearGradient2863" x1="314" x2="334" y1="188" y2="188" gradientUnits="userSpaceOnUse" xlink:href="#color-primary"/><linearGradient id="linearGradient2865" x1="286" x2="306" y1="188" y2="188" gradientUnits="userSpaceOnUse" xlink:href="#color-primary"/></defs><use id="use2857" width="100%" height="100%" x="0" y="0" clip-path="url(#clipPath2990)" transform="translate(278,-16)" xlink:href="#g2474"/><use id="use2859" width="100%" height="100%" x="0" y="0" clip-path="url(#clipPath3037)" transform="translate(278,-16)" xlink:href="#g2463"/><use id="use2861" width="100%" height="100%" x="0" y="0" clip-path="url(#clipPath2996)" transform="translate(278,-16)" xlink:href="#g2471"/><use id="use2863" width="100%" height="100%" x="0" y="0" clip-path="url(#clipPath3002)" transform="translate(278,-16)" xlink:href="#g2467"/><use id="use3121" width="100%" height="100%" x="0" y="0" clip-path="url(#clipPath3288)" transform="translate(330,-16)" xlink:href="#g2474"/><use id="use3123" width="100%" height="100%" x="0" y="0" clip-path="url(#clipPath3276)" transform="translate(330,-16)" xlink:href="#g2463"/><use id="use3125" width="100%" height="100%" x="0" y="0" clip-path="url(#clipPath3284)" transform="translate(330,-16)" xlink:href="#g2471"/><use id="use3127" width="100%" height="100%" x="0" y="0" clip-path="url(#clipPath3280)" transform="translate(330,-16)" xlink:href="#g2467"/><use id="use3129" width="100%" height="100%" x="0" y="0" clip-path="url(#clipPath2990)" transform="matrix(-1,0,0,1,606,-16)" xlink:href="#g2474"/><use id="use3131" width="100%" height="100%" x="0" y="0" clip-path="url(#clipPath3037)" transform="matrix(-1,0,0,1,606,-16)" xlink:href="#g2463"/><use id="use3133" width="100%" height="100%" x="0" y="0" clip-path="url(#clipPath2996)" transform="matrix(-1,0,0,1,606,-16)" xlink:href="#g2471"/><use id="use3135" width="100%" height="100%" x="0" y="0" clip-path="url(#clipPath3002)" transform="matrix(-1,0,0,1,606,-16)" xlink:href="#g2467"/><use id="use3292" width="100%" height="100%" x="0" y="0" clip-path="url(#clipPath3288)" transform="matrix(1,0,0,-1,330,44)" xlink:href="#g2474"/><use id="use3294" width="100%" height="100%" x="0" y="0" clip-path="url(#clipPath3288)" transform="matrix(-1,0,0,1,658,-16)" xlink:href="#g2474"/><use id="use3296" width="100%" height="100%" x="0" y="0" clip-path="url(#clipPath3288)" transform="rotate(180,329,22)" xlink:href="#g2474"/><use id="use3298" width="100%" height="100%" x="0" y="0" clip-path="url(#clipPath3284)" transform="matrix(1,0,0,-1,330,108)" xlink:href="#g2471"/><use id="use3300" width="100%" height="100%" x="0" y="0" clip-path="url(#clipPath3284)" transform="matrix(-1,0,0,1,658,-16)" xlink:href="#g2471"/><use id="use3302" width="100%" height="100%" x="0" y="0" clip-path="url(#clipPath3284)" transform="rotate(180,329,54)" xlink:href="#g2471"/><use id="use3304" width="100%" height="100%" x="0" y="0" clip-path="url(#clipPath3280)" transform="matrix(1,0,0,-1,330,172)" xlink:href="#g2467"/><use id="use3306" width="100%" height="100%" x="0" y="0" clip-path="url(#clipPath3280)" transform="matrix(-1,0,0,1,658,-16)" xlink:href="#g2467"/><use id="use3308" width="100%" height="100%" x="0" y="0" clip-path="url(#clipPath3280)" transform="rotate(180,329,86)" xlink:href="#g2467"/><use id="use3310" width="100%" height="100%" x="0" y="0" clip-path="url(#clipPath3276)" transform="matrix(1,0,0,-1,330,236)" xlink:href="#g2463"/><use id="use3312" width="100%" height="100%" x="0" y="0" clip-path="url(#clipPath3276)" transform="matrix(-1,0,0,1,658,-16)" xlink:href="#g2463"/><use id="use3314" width="100%" height="100%" x="0" y="0" clip-path="url(#clipPath3276)" transform="rotate(180,329,118)" xlink:href="#g2463"/><g id="layer2"><rect style="fill:#1b1f23;stroke-width:.93035;stroke-linecap:round;stroke-linejoin:round;paint-order:stroke fill markers" id="rect1648" width="136" height="246" x="0" y="0" rx="0" ry="0"/></g><g id="layer1"><g id="checkbox-checked" transform="translate(-268,-134)"><rect style="opacity:0;fill:#000;stroke-width:3;stroke-linecap:round;stroke-linejoin:round;paint-order:stroke fill markers" id="rect1125" width="24" height="24" x="284" y="148" rx="0" ry="0"/><path id="path3316" d="m 296,150 c -5.52,0 -10,4.48 -10,10 0,5.52 4.48,10 10,10 5.52,0 10,-4.48 10,-10 0,-5.52 -4.48,-10 -10,-10 z m 5.5898,4.5801 L 303,156 l -9,9 -5,-5 1.4102,-1.4102 3.5898,3.5801 z" style="fill:url(#linearGradient1317);fill-opacity:1"/></g><g id="checkbox-mixed" transform="translate(-268,-50)"><rect style="opacity:0;fill:#000;stroke-width:3;stroke-linecap:round;stroke-linejoin:round;paint-order:stroke fill markers" id="rect1127" width="24" height="24" x="284" y="176" rx="0" ry="0"/><path id="path3325" d="m 296,178 c -5.52,0 -10,4.48 -10,10 0,5.52 4.48,10 10,10 5.52,0 10,-4.48 10,-10 0,-5.52 -4.48,-10 -10,-10 z m -5,9 h 10 v 2 h -10 z" style="fill:url(#linearGradient1327);fill-opacity:1"/></g><g id="radio-checked" transform="translate(-268,-134)"><rect style="opacity:0;fill:#000;stroke-width:3;stroke-linecap:round;stroke-linejoin:round;paint-order:stroke fill markers" id="rect1133" width="24" height="24" x="312" y="148" rx="0" ry="0"/><path id="path3343" d="m 324,150 c -5.52,0 -10,4.48 -10,10 0,5.52 4.48,10 10,10 5.52,0 10,-4.48 10,-10 0,-5.52 -4.48,-10 -10,-10 z m 0,7 c 1.656,0 3,1.344 3,3 0,1.656 -1.344,3 -3,3 -1.656,0 -3,-1.344 -3,-3 0,-1.656 1.344,-3 3,-3 z" style="fill:url(#linearGradient1319);fill-opacity:1"/></g><g id="radio-mixed" transform="translate(-268,-50)"><rect style="opacity:0;fill:#000;stroke-width:3;stroke-linecap:round;stroke-linejoin:round;paint-order:stroke fill markers" id="rect1135" width="24" height="24" x="312" y="176" rx="0" ry="0"/><path id="path1219" d="m 324,178 c -5.52,0 -10,4.48 -10,10 0,5.52 4.48,10 10,10 5.52,0 10,-4.48 10,-10 0,-5.52 -4.48,-10 -10,-10 z m -5,9 h 10 v 2 h -10 z" style="fill:url(#linearGradient1329);fill-opacity:1"/></g><g id="menu-checkbox-checked" transform="translate(-268,-134)"><path id="path2092" d="m 356,152 a 8,8 0 0 0 -8,8 8,8 0 0 0 8,8 8,8 0 0 0 8,-8 8,8 0 0 0 -8,-8 z m 4.5996,3.5898 1.4102,1.4102 -8,8 -4,-4 1.4102,-1.4102 2.5898,2.5898 z" style="fill:url(#linearGradient2232);fill-opacity:1"/></g><g id="menu-radio-mixed" transform="translate(-268,-50)"><path id="path2101" d="m 380,180 a 8,8 0 0 0 -8,8 8,8 0 0 0 8,8 8,8 0 0 0 8,-8 8,8 0 0 0 -8,-8 z m -4,7 h 8 v 2 h -8 z" style="fill:url(#linearGradient2228);fill-opacity:1"/></g><g id="menu-radio-checked" transform="translate(-268,-134)"><path id="path2119" d="m 380,152 c -4.4183,0 -8,3.5817 -8,8 0,4.4183 3.5817,8 8,8 4.4183,0 8,-3.5817 8,-8 0,-4.4183 -3.5817,-8 -8,-8 z m 0,5 a 3,3 0 0 1 3,3 3,3 0 0 1 -3,3 3,3 0 0 1 -3,-3 3,3 0 0 1 3,-3 z" style="fill:url(#linearGradient2234);fill-opacity:1"/></g><g id="menu-checkbox-mixed" transform="translate(-268,-50)"><path id="path2128" d="m 356,180 a 8,8 0 0 0 -8,8 8,8 0 0 0 8,8 8,8 0 0 0 8,-8 8,8 0 0 0 -8,-8 z m -4,7 h 8 v 2 h -8 z" style="fill:url(#linearGradient2230);fill-opacity:1"/></g><g id="checkbox-checked-hover" transform="translate(-268,-106)"><rect style="opacity:0;fill:#000;stroke-width:3;stroke-linecap:round;stroke-linejoin:round;paint-order:stroke fill markers" id="rect2333" width="24" height="24" x="284" y="148" rx="0" ry="0"/><path id="path2335" d="m 296,150 c -5.52,0 -10,4.48 -10,10 0,5.52 4.48,10 10,10 5.52,0 10,-4.48 10,-10 0,-5.52 -4.48,-10 -10,-10 z m 5.5898,4.5801 L 303,156 l -9,9 -5,-5 1.4102,-1.4102 3.5898,3.5801 z" style="fill:url(#linearGradient2359);fill-opacity:1"/><path id="path2361" d="m 296,150 c -5.52,0 -10,4.48 -10,10 0,5.52 4.48,10 10,10 5.52,0 10,-4.48 10,-10 0,-5.52 -4.48,-10 -10,-10 z m 5.5898,4.5801 L 303,156 l -9,9 -5,-5 1.4102,-1.4102 3.5898,3.5801 z" style="opacity:.15;fill:#fff;fill-opacity:1"/></g><g id="radio-checked-hover" transform="translate(-268,-106)"><rect style="opacity:0;fill:#000;stroke-width:3;stroke-linecap:round;stroke-linejoin:round;paint-order:stroke fill markers" id="rect2339" width="24" height="24" x="312" y="148" rx="0" ry="0"/><path id="path2341" d="m 324,150 c -5.52,0 -10,4.48 -10,10 0,5.52 4.48,10 10,10 5.52,0 10,-4.48 10,-10 0,-5.52 -4.48,-10 -10,-10 z m 0,7 c 1.656,0 3,1.344 3,3 0,1.656 -1.344,3 -3,3 -1.656,0 -3,-1.344 -3,-3 0,-1.656 1.344,-3 3,-3 z" style="fill:url(#linearGradient2357);fill-opacity:1"/><path id="path2363" d="m 324,150 c -5.52,0 -10,4.48 -10,10 0,5.52 4.48,10 10,10 5.52,0 10,-4.48 10,-10 0,-5.52 -4.48,-10 -10,-10 z m 0,7 c 1.656,0 3,1.344 3,3 0,1.656 -1.344,3 -3,3 -1.656,0 -3,-1.344 -3,-3 0,-1.656 1.344,-3 3,-3 z" style="opacity:.15;fill:#fff;fill-opacity:1"/></g><g id="menu-checkbox-checked-disabled" transform="translate(-268,-106)" style="opacity:.35"><path id="path2561" d="m 356,152 a 8,8 0 0 0 -8,8 8,8 0 0 0 8,8 8,8 0 0 0 8,-8 8,8 0 0 0 -8,-8 z m 4.5996,3.5898 1.4102,1.4102 -8,8 -4,-4 1.4102,-1.4102 2.5898,2.5898 z" style="fill:url(#linearGradient2571);fill-opacity:1"/></g><g id="menu-radio-checked-disabled" transform="translate(-268,-106)" style="opacity:.35"><path id="path2565" d="m 380,152 c -4.4183,0 -8,3.5817 -8,8 0,4.4183 3.5817,8 8,8 4.4183,0 8,-3.5817 8,-8 0,-4.4183 -3.5817,-8 -8,-8 z m 0,5 a 3,3 0 0 1 3,3 3,3 0 0 1 -3,3 3,3 0 0 1 -3,-3 3,3 0 0 1 3,-3 z" style="fill:url(#linearGradient2569);fill-opacity:1"/></g><g id="menu-radio-mixed-disabled" transform="translate(-268,-22)" style="opacity:.35"><path id="path2591" d="m 380,180 a 8,8 0 0 0 -8,8 8,8 0 0 0 8,8 8,8 0 0 0 8,-8 8,8 0 0 0 -8,-8 z m -4,7 h 8 v 2 h -8 z" style="fill:url(#linearGradient2601);fill-opacity:1"/></g><g id="menu-checkbox-mixed-disabled" transform="translate(-268,-22)" style="opacity:.35"><path id="path2595" d="m 356,180 a 8,8 0 0 0 -8,8 8,8 0 0 0 8,8 8,8 0 0 0 8,-8 8,8 0 0 0 -8,-8 z m -4,7 h 8 v 2 h -8 z" style="fill:url(#linearGradient2599);fill-opacity:1"/></g><g id="checkbox-checked-active" transform="translate(-268,-78)"><rect style="opacity:0;fill:#000;stroke-width:3;stroke-linecap:round;stroke-linejoin:round;paint-order:stroke fill markers" id="rect2621" width="24" height="24" x="284" y="148" rx="0" ry="0"/><path id="path2623" d="m 296,150 c -5.52,0 -10,4.48 -10,10 0,5.52 4.48,10 10,10 5.52,0 10,-4.48 10,-10 0,-5.52 -4.48,-10 -10,-10 z m 5.5898,4.5801 L 303,156 l -9,9 -5,-5 1.4102,-1.4102 3.5898,3.5801 z" style="fill:url(#linearGradient2639);fill-opacity:1"/><path id="path2625" d="m 296,150 c -5.52,0 -10,4.48 -10,10 0,5.52 4.48,10 10,10 5.52,0 10,-4.48 10,-10 0,-5.52 -4.48,-10 -10,-10 z m 5.5898,4.5801 L 303,156 l -9,9 -5,-5 1.4102,-1.4102 3.5898,3.5801 z" style="opacity:.15;fill:#000;fill-opacity:1"/></g><g id="radio-checked-active" transform="translate(-268,-78)"><rect style="opacity:0;fill:#000;stroke-width:3;stroke-linecap:round;stroke-linejoin:round;paint-order:stroke fill markers" id="rect2629" width="24" height="24" x="312" y="148" rx="0" ry="0"/><path id="path2631" d="m 324,150 c -5.52,0 -10,4.48 -10,10 0,5.52 4.48,10 10,10 5.52,0 10,-4.48 10,-10 0,-5.52 -4.48,-10 -10,-10 z m 0,7 c 1.656,0 3,1.344 3,3 0,1.656 -1.344,3 -3,3 -1.656,0 -3,-1.344 -3,-3 0,-1.656 1.344,-3 3,-3 z" style="fill:url(#linearGradient2637);fill-opacity:1"/><path id="path2633" d="m 324,150 c -5.52,0 -10,4.48 -10,10 0,5.52 4.48,10 10,10 5.52,0 10,-4.48 10,-10 0,-5.52 -4.48,-10 -10,-10 z m 0,7 c 1.656,0 3,1.344 3,3 0,1.656 -1.344,3 -3,3 -1.656,0 -3,-1.344 -3,-3 0,-1.656 1.344,-3 3,-3 z" style="opacity:.15;fill:#000;fill-opacity:1"/></g><g id="checkbox-mixed-hover" transform="translate(-268,-22)"><rect style="opacity:0;fill:#000;stroke-width:3;stroke-linecap:round;stroke-linejoin:round;paint-order:stroke fill markers" id="rect2659" width="24" height="24" x="284" y="176" rx="0" ry="0"/><path id="path2661" d="m 296,178 c -5.52,0 -10,4.48 -10,10 0,5.52 4.48,10 10,10 5.52,0 10,-4.48 10,-10 0,-5.52 -4.48,-10 -10,-10 z m -5,9 h 10 v 2 h -10 z" style="fill:url(#linearGradient2673);fill-opacity:1"/><path id="path2691" d="m 296,178 c -5.52,0 -10,4.48 -10,10 0,5.52 4.48,10 10,10 5.52,0 10,-4.48 10,-10 0,-5.52 -4.48,-10 -10,-10 z m -5,9 h 10 v 2 h -10 z" style="opacity:.15;fill:#fff;fill-opacity:1"/></g><g id="radio-mixed-hover" transform="translate(-268,-22)"><rect style="opacity:0;fill:#000;stroke-width:3;stroke-linecap:round;stroke-linejoin:round;paint-order:stroke fill markers" id="rect2665" width="24" height="24" x="312" y="176" rx="0" ry="0"/><path id="path2667" d="m 324,178 c -5.52,0 -10,4.48 -10,10 0,5.52 4.48,10 10,10 5.52,0 10,-4.48 10,-10 0,-5.52 -4.48,-10 -10,-10 z m -5,9 h 10 v 2 h -10 z" style="fill:url(#linearGradient2671);fill-opacity:1"/><path id="path2693" d="m 324,178 c -5.52,0 -10,4.48 -10,10 0,5.52 4.48,10 10,10 5.52,0 10,-4.48 10,-10 0,-5.52 -4.48,-10 -10,-10 z m -5,9 h 10 v 2 h -10 z" style="opacity:.15;fill:#fff;fill-opacity:1"/></g><g id="checkbox-mixed-active" transform="translate(-268,6)"><rect style="opacity:0;fill:#000;stroke-width:3;stroke-linecap:round;stroke-linejoin:round;paint-order:stroke fill markers" id="rect2675" width="24" height="24" x="284" y="176" rx="0" ry="0"/><path id="path2677" d="m 296,178 c -5.52,0 -10,4.48 -10,10 0,5.52 4.48,10 10,10 5.52,0 10,-4.48 10,-10 0,-5.52 -4.48,-10 -10,-10 z m -5,9 h 10 v 2 h -10 z" style="fill:url(#linearGradient2689);fill-opacity:1"/><path id="path2731" d="m 296,178 c -5.52,0 -10,4.48 -10,10 0,5.52 4.48,10 10,10 5.52,0 10,-4.48 10,-10 0,-5.52 -4.48,-10 -10,-10 z m -5,9 h 10 v 2 h -10 z" style="opacity:.15;fill:#000;fill-opacity:1"/></g><g id="radio-mixed-active" transform="translate(-268,6)"><rect style="opacity:0;fill:#000;stroke-width:3;stroke-linecap:round;stroke-linejoin:round;paint-order:stroke fill markers" id="rect2681" width="24" height="24" x="312" y="176" rx="0" ry="0"/><path id="path2683" d="m 324,178 c -5.52,0 -10,4.48 -10,10 0,5.52 4.48,10 10,10 5.52,0 10,-4.48 10,-10 0,-5.52 -4.48,-10 -10,-10 z m -5,9 h 10 v 2 h -10 z" style="fill:url(#linearGradient2687);fill-opacity:1"/><path id="path2733" d="m 324,178 c -5.52,0 -10,4.48 -10,10 0,5.52 4.48,10 10,10 5.52,0 10,-4.48 10,-10 0,-5.52 -4.48,-10 -10,-10 z m -5,9 h 10 v 2 h -10 z" style="opacity:.15;fill:#000;fill-opacity:1"/></g><g id="checkbox-checked-disabled" transform="translate(-268,-50)" style="opacity:.35"><rect style="opacity:0;fill:#000;stroke-width:3;stroke-linecap:round;stroke-linejoin:round;paint-order:stroke fill markers" id="rect2817" width="24" height="24" x="284" y="148" rx="0" ry="0"/><path id="path2819" d="m 296,150 c -5.52,0 -10,4.48 -10,10 0,5.52 4.48,10 10,10 5.52,0 10,-4.48 10,-10 0,-5.52 -4.48,-10 -10,-10 z m 5.5898,4.5801 L 303,156 l -9,9 -5,-5 1.4102,-1.4102 3.5898,3.5801 z" style="fill:url(#linearGradient2831);fill-opacity:1"/></g><g id="radio-checked-disabled" transform="translate(-268,-50)" style="opacity:.35"><rect style="opacity:0;fill:#000;stroke-width:3;stroke-linecap:round;stroke-linejoin:round;paint-order:stroke fill markers" id="rect2823" width="24" height="24" x="312" y="148" rx="0" ry="0"/><path id="path2825" d="m 324,150 c -5.52,0 -10,4.48 -10,10 0,5.52 4.48,10 10,10 5.52,0 10,-4.48 10,-10 0,-5.52 -4.48,-10 -10,-10 z m 0,7 c 1.656,0 3,1.344 3,3 0,1.656 -1.344,3 -3,3 -1.656,0 -3,-1.344 -3,-3 0,-1.656 1.344,-3 3,-3 z" style="fill:url(#linearGradient2829);fill-opacity:1"/></g><g id="checkbox-mixed-disabled" transform="translate(-268,34)" style="opacity:.35"><rect style="opacity:0;fill:#000;stroke-width:3;stroke-linecap:round;stroke-linejoin:round;paint-order:stroke fill markers" id="rect2851" width="24" height="24" x="284" y="176" rx="0" ry="0"/><path id="path2853" d="m 296,178 c -5.52,0 -10,4.48 -10,10 0,5.52 4.48,10 10,10 5.52,0 10,-4.48 10,-10 0,-5.52 -4.48,-10 -10,-10 z m -5,9 h 10 v 2 h -10 z" style="fill:url(#linearGradient2865);fill-opacity:1"/></g><g id="radio-mixed-disabled" transform="translate(-268,34)" style="opacity:.35"><rect style="opacity:0;fill:#000;stroke-width:3;stroke-linecap:round;stroke-linejoin:round;paint-order:stroke fill markers" id="rect2857" width="24" height="24" x="312" y="176" rx="0" ry="0"/><path id="path2859" d="m 324,178 c -5.52,0 -10,4.48 -10,10 0,5.52 4.48,10 10,10 5.52,0 10,-4.48 10,-10 0,-5.52 -4.48,-10 -10,-10 z m -5,9 h 10 v 2 h -10 z" style="fill:url(#linearGradient2863);fill-opacity:1"/></g></g></svg>