<svg xmlns="http://www.w3.org/2000/svg" xmlns:svg="http://www.w3.org/2000/svg" xmlns:xlink="http://www.w3.org/1999/xlink" id="svg200" width="400" height="200" version="1.1" viewBox="0 0 400 200"><defs id="defs83"><linearGradient id="color-on-primary-dark" x1="6.212" x2="29.25" y1="11.894" y2="11.894" gradientTransform="scale(1.1453 .87314)" gradientUnits="userSpaceOnUse"><stop id="stop2" offset="1" stop-color="#1B1F23"/></linearGradient><linearGradient id="color-on-primary-light" x1="6.212" x2="29.25" y1="11.894" y2="11.894" gradientTransform="scale(1.1453 .87314)" gradientUnits="userSpaceOnUse"><stop id="stop2" offset="1" stop-color="#1B1F23"/></linearGradient><linearGradient id="color-text-secondary-disabled"><stop id="stop8" offset="1" stop-color="#4B4F53" stop-opacity=".26"/></linearGradient><linearGradient id="color-text-secondary-disabled-dark"><stop id="stop11" offset="1" stop-color="#4B4F53" stop-opacity=".3"/></linearGradient><linearGradient id="color-primary-dark"><stop id="stop14" offset="1" stop-color="#FFDEDE"/></linearGradient><linearGradient id="color-primary-light"><stop id="stop17" offset="1" stop-color="#FFDEDE"/></linearGradient><linearGradient id="color-background"><stop id="stop20" offset="1" stop-color="#1B1F23"/></linearGradient><linearGradient id="color-background-dark"><stop id="stop23" offset="1" stop-color="#1B1F23"/></linearGradient><linearGradient id="color-surface" x2="40" gradientUnits="userSpaceOnUse"><stop id="stop26" offset="1" stop-color="#161A1E"/></linearGradient><linearGradient id="color-surface-dark" x2="40" gradientUnits="userSpaceOnUse"><stop id="stop29" offset="1" stop-color="#161A1E"/></linearGradient><g id="base-scale-slider"><rect id="rect32" width="24" height="24" fill="none"/><circle id="circle34" cx="12" cy="12" r="6"/></g><g id="base-scale-horz-marks-before-slider"><rect id="rect37" width="24" height="24" fill="none"/><path id="path39" d="m6 6h6a6 6 0 1 1-6 6z" transform="rotate(45 12 12)"/></g><g id="base-scale-vert-marks-after-slider"><use id="use42" transform="rotate(90 12 12)" xlink:href="#base-scale-horz-marks-before-slider"/></g><g id="base-scale-horz-marks-after-slider"><use id="use45" transform="rotate(180 12 12)" xlink:href="#base-scale-horz-marks-before-slider"/></g><g id="base-scale-vert-marks-before-slider"><use id="use48" transform="rotate(270 12 12)" xlink:href="#base-scale-horz-marks-before-slider"/></g><g id="base-selectionmode-checkbox"><rect id="rect51" width="40" height="40" fill="none"/><rect id="rect53" width="36" height="36" x="2" y="2" rx="4"/></g><g id="base-selectionmode-checkmark"><path id="path56" d="M9 16.17L4.83 12l-1.42 1.41L9 19 21 7l-1.41-1.41z" transform="matrix(1.5 0 0 1.5 2 2)"/></g><linearGradient id="linearGradient976" x2="200" gradientUnits="userSpaceOnUse" xlink:href="#color-background"/><linearGradient id="linearGradient978" x2="24" gradientUnits="userSpaceOnUse" xlink:href="#color-primary-dark"/><linearGradient id="linearGradient980" x2="24" gradientUnits="userSpaceOnUse" xlink:href="#color-background"/><linearGradient id="linearGradient982" x2="24" gradientUnits="userSpaceOnUse" xlink:href="#color-text-secondary-disabled"/><linearGradient id="linearGradient990" x1="0" x2="24" gradientUnits="userSpaceOnUse" xlink:href="#color-primary-dark"/><linearGradient id="linearGradient992" x1="0" x2="24" gradientUnits="userSpaceOnUse" xlink:href="#color-background"/><linearGradient id="linearGradient994" x1="0" x2="24" gradientUnits="userSpaceOnUse" xlink:href="#color-text-secondary-disabled"/><linearGradient id="linearGradient996" x1="0" x2="24" y1="0" y2="0" gradientUnits="userSpaceOnUse" xlink:href="#color-primary-dark"/><linearGradient id="linearGradient998" x1="0" x2="24" y1="0" y2="0" gradientUnits="userSpaceOnUse" xlink:href="#color-background"/><linearGradient id="linearGradient1000" x1="0" x2="24" y1="0" y2="0" gradientUnits="userSpaceOnUse" xlink:href="#color-text-secondary-disabled"/><linearGradient id="linearGradient1008" x2="40" gradientUnits="userSpaceOnUse" xlink:href="#color-primary-dark"/><linearGradient id="linearGradient1041" x2="200" gradientTransform="translate(200)" gradientUnits="userSpaceOnUse" xlink:href="#color-background-dark"/><linearGradient id="linearGradient1043" x2="24" gradientUnits="userSpaceOnUse" xlink:href="#color-primary-light"/><linearGradient id="linearGradient1045" x2="24" gradientUnits="userSpaceOnUse" xlink:href="#color-background-dark"/><linearGradient id="linearGradient1047" x2="24" gradientUnits="userSpaceOnUse" xlink:href="#color-text-secondary-disabled-dark"/><linearGradient id="linearGradient1055" x1="0" x2="24" gradientUnits="userSpaceOnUse" xlink:href="#color-primary-light"/><linearGradient id="linearGradient1057" x1="0" x2="24" gradientUnits="userSpaceOnUse" xlink:href="#color-background-dark"/><linearGradient id="linearGradient1059" x1="0" x2="24" gradientUnits="userSpaceOnUse" xlink:href="#color-text-secondary-disabled-dark"/><linearGradient id="linearGradient1061" x1="0" x2="24" y1="0" y2="0" gradientUnits="userSpaceOnUse" xlink:href="#color-primary-light"/><linearGradient id="linearGradient1063" x1="0" x2="24" y1="0" y2="0" gradientUnits="userSpaceOnUse" xlink:href="#color-background-dark"/><linearGradient id="linearGradient1065" x1="0" x2="24" y1="0" y2="0" gradientUnits="userSpaceOnUse" xlink:href="#color-text-secondary-disabled-dark"/><linearGradient id="linearGradient1073" x2="40" gradientUnits="userSpaceOnUse" xlink:href="#color-primary-light"/><linearGradient id="linearGradient1064" x1="72" x2="192" y1="260" y2="260" gradientUnits="userSpaceOnUse" xlink:href="#color-primary-light"/><linearGradient id="linearGradient1066" x1="72" x2="192" y1="260" y2="260" gradientUnits="userSpaceOnUse" xlink:href="#color-primary-dark"/><linearGradient id="linearGradient210" x1="72" x2="192" y1="260" y2="260" gradientUnits="userSpaceOnUse" xlink:href="#color-primary-light"/></defs><rect id="rect85" width="200" height="200" fill="url(#linearGradient976)"/><g id="scale-slider" transform="translate(8,8)"><use id="use87" width="100%" height="100%" fill="url(#linearGradient978)" xlink:href="#base-scale-slider"/></g><g id="scale-slider-disabled" transform="translate(8,40)"><use id="use90" width="100%" height="100%" fill="url(#linearGradient980)" xlink:href="#base-scale-slider"/><use id="use92" width="100%" height="100%" fill="url(#linearGradient982)" xlink:href="#base-scale-slider"/></g><g id="scale-horz-marks-before-slider" transform="translate(40,8)"><use id="use95" width="100%" height="100%" fill="url(#linearGradient978)" xlink:href="#base-scale-horz-marks-before-slider"/></g><g id="scale-horz-marks-before-slider-disabled" transform="translate(40,40)"><use id="use98" width="100%" height="100%" fill="url(#linearGradient980)" xlink:href="#base-scale-horz-marks-before-slider"/><use id="use100" width="100%" height="100%" fill="url(#linearGradient982)" xlink:href="#base-scale-horz-marks-before-slider"/></g><g id="scale-horz-marks-after-slider" transform="translate(72,8)"><use id="use103" width="100%" height="100%" fill="url(#linearGradient990)" xlink:href="#base-scale-horz-marks-after-slider"/></g><g id="scale-horz-marks-after-slider-disabled" transform="translate(72,40)"><use id="use106" width="100%" height="100%" fill="url(#linearGradient992)" xlink:href="#base-scale-horz-marks-after-slider"/><use id="use108" width="100%" height="100%" fill="url(#linearGradient994)" xlink:href="#base-scale-horz-marks-after-slider"/></g><g id="scale-vert-marks-before-slider" transform="translate(104,8)"><use id="use111" width="100%" height="100%" fill="url(#linearGradient996)" xlink:href="#base-scale-vert-marks-before-slider"/></g><g id="scale-vert-marks-before-slider-disabled" transform="translate(104,40)"><use id="use114" width="100%" height="100%" fill="url(#linearGradient998)" xlink:href="#base-scale-vert-marks-before-slider"/><use id="use116" width="100%" height="100%" fill="url(#linearGradient1000)" xlink:href="#base-scale-vert-marks-before-slider"/></g><g id="scale-vert-marks-after-slider" transform="translate(136,8)"><use id="use119" width="100%" height="100%" fill="url(#linearGradient978)" xlink:href="#base-scale-vert-marks-after-slider"/></g><g id="scale-vert-marks-after-slider-disabled" transform="translate(136,40)"><use id="use122" width="100%" height="100%" fill="url(#linearGradient980)" xlink:href="#base-scale-vert-marks-after-slider"/><use id="use124" width="100%" height="100%" fill="url(#linearGradient982)" xlink:href="#base-scale-vert-marks-after-slider"/></g><g id="selectionmode-checkbox-unchecked" transform="translate(8,72)"><use id="use127" width="100%" height="100%" fill="url(#color-surface)" xlink:href="#base-selectionmode-checkbox"/></g><g id="selectionmode-checkbox-checked" transform="translate(56,72)"><use id="use130" width="100%" height="100%" fill="url(#linearGradient1008)" xlink:href="#base-selectionmode-checkbox"/><use id="use132" width="100%" height="100%" fill="url(#color-on-primary-dark)" xlink:href="#base-selectionmode-checkmark"/></g><rect id="rect135" width="200" height="200" x="200" fill="url(#linearGradient1041)"/><g id="scale-slider-dark" transform="translate(208,8)"><use id="use137" width="100%" height="100%" fill="url(#linearGradient1043)" xlink:href="#base-scale-slider"/></g><g id="scale-slider-disabled-dark" transform="translate(208,40)"><use id="use140" width="100%" height="100%" fill="url(#linearGradient1045)" xlink:href="#base-scale-slider"/><use id="use142" width="100%" height="100%" fill="url(#linearGradient1047)" xlink:href="#base-scale-slider"/></g><g id="scale-horz-marks-before-slider-dark" transform="translate(240,8)"><use id="use145" width="100%" height="100%" fill="url(#linearGradient1043)" xlink:href="#base-scale-horz-marks-before-slider"/></g><g id="scale-horz-marks-before-slider-disabled-dark" transform="translate(240,40)"><use id="use148" width="100%" height="100%" fill="url(#linearGradient1045)" xlink:href="#base-scale-horz-marks-before-slider"/><use id="use150" width="100%" height="100%" fill="url(#linearGradient1047)" xlink:href="#base-scale-horz-marks-before-slider"/></g><g id="scale-horz-marks-after-slider-dark" transform="translate(272,8)"><use id="use153" width="100%" height="100%" fill="url(#linearGradient1055)" xlink:href="#base-scale-horz-marks-after-slider"/></g><g id="scale-horz-marks-after-slider-disabled-dark" transform="translate(272,40)"><use id="use156" width="100%" height="100%" fill="url(#linearGradient1057)" xlink:href="#base-scale-horz-marks-after-slider"/><use id="use158" width="100%" height="100%" fill="url(#linearGradient1059)" xlink:href="#base-scale-horz-marks-after-slider"/></g><g id="scale-vert-marks-before-slider-dark" transform="translate(304,8)"><use id="use161" width="100%" height="100%" fill="url(#linearGradient1061)" xlink:href="#base-scale-vert-marks-before-slider"/></g><g id="scale-vert-marks-before-slider-disabled-dark" transform="translate(304,40)"><use id="use164" width="100%" height="100%" fill="url(#linearGradient1063)" xlink:href="#base-scale-vert-marks-before-slider"/><use id="use166" width="100%" height="100%" fill="url(#linearGradient1065)" xlink:href="#base-scale-vert-marks-before-slider"/></g><g id="scale-vert-marks-after-slider-dark" transform="translate(336,8)"><use id="use169" width="100%" height="100%" fill="url(#linearGradient1043)" xlink:href="#base-scale-vert-marks-after-slider"/></g><g id="scale-vert-marks-after-slider-disabled-dark" transform="translate(336,40)"><use id="use172" width="100%" height="100%" fill="url(#linearGradient1045)" xlink:href="#base-scale-vert-marks-after-slider"/><use id="use174" width="100%" height="100%" fill="url(#linearGradient1047)" xlink:href="#base-scale-vert-marks-after-slider"/></g><g id="selectionmode-checkbox-unchecked-dark" transform="translate(208,72)"><use id="use177" width="100%" height="100%" fill="url(#color-surface-dark)" xlink:href="#base-selectionmode-checkbox"/></g><g id="selectionmode-checkbox-checked-dark" transform="translate(256,72)"><use id="use180" width="100%" height="100%" fill="url(#linearGradient1073)" xlink:href="#base-selectionmode-checkbox"/><use id="use182" width="100%" height="100%" fill="url(#color-on-primary-light)" xlink:href="#base-selectionmode-checkmark"/></g><g id="row-selected" transform="translate(138,17)"><rect style="paint-order:stroke fill markers" id="rect190" width="120" height="54" x="72" y="233" fill="url(#linearGradient1064)" opacity=".08"/><path style="paint-order:stroke fill markers" id="path192" fill="#1B1F23" d="m192 233c0 4.986-4.014 9-9 9h-93c-9.972 0-18 8.028-18 18s8.028 18 18 18h93c4.986 0 9 4.014 9 9v-45z"/></g><g id="row-selected-dark" transform="translate(138,-103)"><rect style="paint-order:stroke fill markers" id="rect190" width="120" height="54" x="72" y="233" fill="url(#linearGradient1064)" opacity=".08"/><path style="paint-order:stroke fill markers" id="path192" fill="#1B1F23" d="m192 233c0 4.986-4.014 9-9 9h-93c-9.972 0-18 8.028-18 18s8.028 18 18 18h93c4.986 0 9 4.014 9 9v-45z"/></g><g id="row-selected-light" transform="translate(-62,-103)"><rect style="paint-order:stroke fill markers" id="rect190" width="120" height="54" x="72" y="233" fill="url(#linearGradient1064)" opacity=".08"/><path style="paint-order:stroke fill markers" id="path192" fill="#1B1F23" d="m192 233c0 4.986-4.014 9-9 9h-93c-9.972 0-18 8.028-18 18s8.028 18 18 18h93c4.986 0 9 4.014 9 9v-45z"/></g><g id="row-selected-blackness-dark" transform="translate(344.08929,-103)"><rect style="paint-order:stroke fill markers" id="rect190" width="120" height="54" x="72" y="233" fill="url(#linearGradient1064)" opacity=".08"/><path style="paint-order:stroke fill markers" id="path192" fill="#1B1F23" d="m192 233c0 4.986-4.014 9-9 9h-93c-9.972 0-18 8.028-18 18s8.028 18 18 18h93c4.986 0 9 4.014 9 9v-45z"/></g><g id="row-selected-blackness" transform="translate(345.7961,17)"><rect style="paint-order:stroke fill markers" id="rect190" width="120" height="54" x="72" y="233" fill="url(#linearGradient1064)" opacity=".08"/><path style="paint-order:stroke fill markers" id="path192" fill="#1B1F23" d="m192 233c0 4.986-4.014 9-9 9h-93c-9.972 0-18 8.028-18 18s8.028 18 18 18h93c4.986 0 9 4.014 9 9v-45z"/></g></svg>