<svg xmlns="http://www.w3.org/2000/svg" xmlns:svg="http://www.w3.org/2000/svg" id="svg8" width="200" height="150" version="1.1" viewBox="0 0 52.917 39.688"><defs id="defs2"><linearGradient id="selected_bg_color"><stop style="stop-color:#2e90b3;stop-opacity:1" id="stop5956" offset="0"/></linearGradient><linearGradient id="selected_bg_color-3"><stop style="stop-color:#5294e2;stop-opacity:1" id="stop5956-6" offset="0"/></linearGradient></defs><metadata id="metadata5"/><g id="layer1" transform="translate(0,-257.31248)"><g id="thumbnail"><rect id="rect1231" width="31.75" height="9.525" x="12.171" y="265.25" rx="0" ry="0" style="fill:#1b1f23;fill-opacity:1;stroke:#1b1f23;stroke-width:0;stroke-miterlimit:4;stroke-dasharray:none;stroke-opacity:1"/><rect id="rect1295" width="15.875" height="5.821" x="13.758" y="267.102" rx="1.587" ry="1.587" style="stroke-opacity:1;stroke-dasharray:none;stroke-miterlimit:4;stroke-width:.264582;stroke:none;fill-opacity:1;fill:#fff;opacity:.08"/><path id="path1297" d="m 16.329976,268.76062 v 2.45618 h 0.90227 c 0.281588,0 0.49855,-0.0598 0.651123,-0.17932 0.152573,-0.11955 0.228927,-0.28912 0.228927,-0.50849 0,-0.16673 -0.04693,-0.30521 -0.140044,-0.416 -0.09199,-0.11185 -0.221448,-0.18553 -0.388606,-0.22066 0.139111,-0.0219 0.24446,-0.0776 0.31626,-0.16639 0.0718,-0.0889 0.108003,-0.20837 0.108003,-0.35864 0,-0.19415 -0.07009,-0.34376 -0.210323,-0.44907 -0.140233,-0.10529 -0.339779,-0.15761 -0.59893,-0.15761 z m 4.383711,0.0904 v 0.52297 h -0.226859 v 0.23513 h 0.226859 v 1.00045 c 0,0.23035 0.04556,0.38923 0.136426,0.47698 0.09087,0.0866 0.255587,0.13022 0.494543,0.13022 h 0.318327 v -0.25321 h -0.318327 c -0.129017,0 -0.214721,-0.0213 -0.257348,-0.0641 -0.04151,-0.0428 -0.06201,-0.13963 -0.06201,-0.28991 v -1.00045 h 0.637687 v -0.23513 H 21.025298 V 268.851 Z m 1.703255,0 v 0.52297 h -0.227376 v 0.23513 h 0.227376 v 1.00045 c 0,0.23035 0.04504,0.38923 0.135909,0.47698 0.09087,0.0866 0.256103,0.13022 0.495061,0.13022 h 0.31781 v -0.25321 h -0.31781 c -0.129011,0 -0.214715,-0.0213 -0.257349,-0.0641 -0.04151,-0.0428 -0.06253,-0.13963 -0.06253,-0.28991 v -1.00045 h 0.637688 v -0.23513 H 22.728033 V 268.851 Z m -5.746936,0.18242 h 0.503329 c 0.166036,0 0.289229,0.0306 0.370003,0.092 0.0819,0.0614 0.12299,0.15407 0.12299,0.27802 0,0.12504 -0.04109,0.21866 -0.12299,0.28008 -0.08077,0.0603 -0.203967,0.0904 -0.370003,0.0904 h -0.503329 z m 8.18503,0.29611 c -0.270369,0 -0.482441,0.0857 -0.636137,0.25683 -0.152574,0.17111 -0.228926,0.40781 -0.228926,0.71055 0,0.30164 0.07635,0.53886 0.228926,0.71107 0.153696,0.17111 0.365768,0.25631 0.636137,0.25631 0.269248,0 0.480892,-0.0852 0.634587,-0.25631 0.153696,-0.17221 0.230477,-0.40943 0.230477,-0.71107 0,-0.30274 -0.07678,-0.53944 -0.230477,-0.71055 -0.153695,-0.17111 -0.365339,-0.25683 -0.634587,-0.25683 z m 2.123902,0 c -0.131258,0 -0.24733,0.0273 -0.348301,0.0822 -0.09984,0.0548 -0.186922,0.13778 -0.260964,0.24857 v -0.28629 H 26.05858 v 1.84278 h 0.311093 v -1.04128 c 0,-0.17988 0.04821,-0.32212 0.144693,-0.42633 0.09648,-0.1042 0.228166,-0.15606 0.395325,-0.15606 0.139112,0 0.243604,0.043 0.313161,0.12971 0.06955,0.0867 0.104386,0.2173 0.104386,0.3917 v 1.10226 h 0.309541 v -1.11208 c 0,-0.25447 -0.05533,-0.44721 -0.166399,-0.57774 -0.111064,-0.13162 -0.274923,-0.1974 -0.491442,-0.1974 z m -8.277531,0.0444 v 1.11569 c 0,0.25338 0.05576,0.44561 0.167948,0.57723 0.112187,0.13162 0.276473,0.1974 0.492993,0.1974 0.131259,0 0.246475,-0.0269 0.345199,-0.0806 0.09985,-0.0548 0.187351,-0.13824 0.262516,-0.25012 v 0.28319 h 0.309542 v -1.84278 h -0.309542 v 1.0449 c 0,0.17988 -0.04864,0.32161 -0.146244,0.42581 -0.09648,0.10421 -0.228683,0.15658 -0.395842,0.15658 -0.139111,0 -0.243086,-0.0436 -0.312642,-0.13022 -0.06956,-0.0878 -0.104386,-0.21886 -0.104386,-0.39326 v -1.10381 z m 6.153629,0.21239 c 0.164914,0 0.295744,0.0639 0.392225,0.19224 0.09648,0.12724 0.144694,0.30004 0.144694,0.51831 0,0.21938 -0.04821,0.39263 -0.144694,0.51987 -0.09648,0.12723 -0.227311,0.1912 -0.392225,0.1912 -0.167157,0 -0.298844,-0.063 -0.395324,-0.18914 -0.09536,-0.12723 -0.143144,-0.30146 -0.143144,-0.52193 0,-0.22047 0.04821,-0.39372 0.144694,-0.51986 0.09648,-0.12725 0.227739,-0.19069 0.393774,-0.19069 z m -8.18503,0.45734 h 0.545187 c 0.182863,0 0.318154,0.0366 0.40566,0.11007 0.08863,0.0724 0.132808,0.18543 0.132808,0.33899 0,0.15247 -0.04418,0.26597 -0.132808,0.34055 -0.08751,0.0735 -0.222797,0.11007 -0.40566,0.11007 h -0.545187 z" style="stroke-width:.085194;stroke:none;fill-opacity:1;fill:#fff;opacity:.65;word-spacing:0;letter-spacing:0;-inkscape-font-specification:Samanata;font-family:Samanata;line-height:1.25;font-size:3.40857px;font-stretch:normal;font-weight:400;font-variant:normal;font-style:normal"/><path id="path1330-3" d="m 33.602083,267.36664 c -1.4605,0 -2.645834,1.18533 -2.645834,2.64583 0,1.4605 1.185334,2.64583 2.645834,2.64583 1.4605,0 2.645833,-1.18533 2.645833,-2.64583 0,-1.4605 -1.185333,-2.64583 -2.645833,-2.64583 z m 1.478967,1.21181 0.373116,0.37569 -2.38125,2.38125 -1.322917,-1.32292 0.373116,-0.37312 0.949801,0.94724 z" style="fill:#ffdede;fill-opacity:1;stroke-width:.264583"/><path id="path1341" d="m 39.952083,267.36664 c -1.4605,0 -2.645833,1.18533 -2.645833,2.64583 0,1.4605 1.185333,2.64583 2.645833,2.64583 1.4605,0 2.645834,-1.18533 2.645834,-2.64583 0,-1.4605 -1.185334,-2.64583 -2.645834,-2.64583 z m 0,1.85208 c 0.43815,0 0.79375,0.3556 0.79375,0.79375 0,0.43815 -0.3556,0.79375 -0.79375,0.79375 -0.43815,0 -0.79375,-0.3556 -0.79375,-0.79375 0,-0.43815 0.3556,-0.79375 0.79375,-0.79375 z" style="fill:#ffdede;fill-opacity:1;stroke-width:.264583"/></g><g id="thumbnail-Dark"><rect id="rect1384" width="31.75" height="9.525" x="12.171" y="279.537" rx="0" ry="0" style="fill:#1b1f23;fill-opacity:1;stroke:#f2f2f2;stroke-width:0;stroke-miterlimit:4;stroke-dasharray:none;stroke-opacity:1"/><rect id="rect1386" width="15.875" height="5.821" x="13.758" y="281.39" rx="1.587" ry="1.587" style="stroke-opacity:1;stroke-dasharray:none;stroke-miterlimit:4;stroke-width:.264582;stroke:none;fill-opacity:1;fill:#fff;opacity:.1"/><path id="path1388" d="m 16.329976,283.04813 v 2.45618 h 0.90227 c 0.281588,0 0.49855,-0.0598 0.651123,-0.17932 0.152573,-0.11955 0.228927,-0.28912 0.228927,-0.50849 0,-0.16673 -0.04693,-0.30521 -0.140044,-0.416 -0.09199,-0.11185 -0.221448,-0.18553 -0.388606,-0.22066 0.139111,-0.0219 0.24446,-0.0775 0.31626,-0.16639 0.0718,-0.0889 0.108003,-0.20837 0.108003,-0.35864 0,-0.19415 -0.07009,-0.34376 -0.210323,-0.44907 -0.140233,-0.10529 -0.339779,-0.15761 -0.59893,-0.15761 z m 4.383711,0.0904 v 0.52297 h -0.226859 v 0.23513 h 0.226859 v 1.00045 c 0,0.23035 0.04556,0.38923 0.136426,0.47698 0.09087,0.0866 0.255587,0.13022 0.494543,0.13022 h 0.318327 v -0.25321 h -0.318327 c -0.129017,0 -0.214721,-0.0213 -0.257348,-0.0641 -0.04151,-0.0428 -0.06201,-0.13963 -0.06201,-0.28991 v -1.00045 h 0.637687 v -0.23513 h -0.637687 v -0.52297 z m 1.703255,0 v 0.52297 h -0.227376 v 0.23513 h 0.227376 v 1.00045 c 0,0.23035 0.04504,0.38923 0.135909,0.47698 0.09087,0.0866 0.256103,0.13022 0.495061,0.13022 h 0.31781 v -0.25321 h -0.31781 c -0.129011,0 -0.214715,-0.0213 -0.257349,-0.0641 -0.04151,-0.0428 -0.06253,-0.13963 -0.06253,-0.28991 v -1.00045 h 0.637688 v -0.23513 h -0.637688 v -0.52297 z m -5.746936,0.18242 h 0.503329 c 0.166036,0 0.289229,0.0306 0.370003,0.092 0.0819,0.0614 0.12299,0.15407 0.12299,0.27802 0,0.12504 -0.04109,0.21866 -0.12299,0.28008 -0.08077,0.0603 -0.203967,0.0904 -0.370003,0.0904 h -0.503329 z m 8.18503,0.29611 c -0.270369,0 -0.482441,0.0857 -0.636137,0.25683 -0.152574,0.17111 -0.228926,0.40781 -0.228926,0.71055 0,0.30164 0.07635,0.53886 0.228926,0.71107 0.153696,0.17111 0.365768,0.25631 0.636137,0.25631 0.269248,0 0.480892,-0.0852 0.634587,-0.25631 0.153696,-0.17221 0.230477,-0.40943 0.230477,-0.71107 0,-0.30274 -0.07678,-0.53944 -0.230477,-0.71055 -0.153695,-0.17111 -0.365339,-0.25683 -0.634587,-0.25683 z m 2.123902,0 c -0.131258,0 -0.24733,0.0273 -0.348301,0.0822 -0.09984,0.0548 -0.186922,0.13778 -0.260964,0.24857 v -0.28629 H 26.05858 v 1.84278 h 0.311093 v -1.04128 c 0,-0.17988 0.04821,-0.32212 0.144693,-0.42633 0.09648,-0.1042 0.228166,-0.15606 0.395325,-0.15606 0.139112,0 0.243604,0.043 0.313161,0.12971 0.06955,0.0867 0.104386,0.2173 0.104386,0.3917 v 1.10226 h 0.309541 v -1.11208 c 0,-0.25447 -0.05533,-0.44721 -0.166399,-0.57774 -0.111064,-0.13162 -0.274923,-0.1974 -0.491442,-0.1974 z m -8.277531,0.0444 v 1.11569 c 0,0.25338 0.05576,0.44561 0.167948,0.57723 0.112187,0.13162 0.276473,0.1974 0.492993,0.1974 0.131259,0 0.246475,-0.0269 0.345199,-0.0806 0.09985,-0.0548 0.187351,-0.13824 0.262516,-0.25012 v 0.28319 h 0.309542 v -1.84278 h -0.309542 v 1.0449 c 0,0.17988 -0.04864,0.32161 -0.146244,0.42581 -0.09648,0.10421 -0.228683,0.15658 -0.395842,0.15658 -0.139111,0 -0.243086,-0.0436 -0.312642,-0.13022 -0.06956,-0.0878 -0.104386,-0.21886 -0.104386,-0.39326 v -1.10381 z m 6.153629,0.21239 c 0.164914,0 0.295744,0.0639 0.392225,0.19224 0.09648,0.12724 0.144694,0.30004 0.144694,0.51831 0,0.21938 -0.04821,0.39263 -0.144694,0.51987 -0.09648,0.12723 -0.227311,0.1912 -0.392225,0.1912 -0.167157,0 -0.298844,-0.063 -0.395324,-0.18914 -0.09536,-0.12723 -0.143144,-0.30146 -0.143144,-0.52193 0,-0.22047 0.04821,-0.39372 0.144694,-0.51986 0.09648,-0.12725 0.227739,-0.19069 0.393774,-0.19069 z m -8.18503,0.45734 h 0.545187 c 0.182863,0 0.318154,0.0366 0.40566,0.11007 0.08863,0.0724 0.132808,0.18543 0.132808,0.33899 0,0.15247 -0.04418,0.26597 -0.132808,0.34055 -0.08751,0.0735 -0.222797,0.11007 -0.40566,0.11007 h -0.545187 z" style="font-style:normal;font-variant:normal;font-weight:400;font-stretch:normal;font-size:3.40857px;line-height:1.25;font-family:Samanata;-inkscape-font-specification:Samanata;letter-spacing:0;word-spacing:0;opacity:.65;fill:#fff;fill-opacity:1;stroke:none;stroke-width:.085194"/><path id="path1392" d="m 33.602083,281.65414 c -1.4605,0 -2.645834,1.18533 -2.645834,2.64583 0,1.4605 1.185334,2.64583 2.645834,2.64583 1.4605,0 2.645833,-1.18533 2.645833,-2.64583 0,-1.4605 -1.185333,-2.64583 -2.645833,-2.64583 z m 1.478967,1.21181 0.373116,0.37569 -2.38125,2.38125 -1.322917,-1.32292 0.373116,-0.37312 0.949801,0.94724 z" style="fill:#ffdede;fill-opacity:1;stroke-width:.264583"/><path id="path1394" d="m 39.952083,281.65414 c -1.4605,0 -2.645833,1.18533 -2.645833,2.64583 0,1.4605 1.185333,2.64583 2.645833,2.64583 1.4605,0 2.645834,-1.18533 2.645834,-2.64583 0,-1.4605 -1.185334,-2.64583 -2.645834,-2.64583 z m 0,1.85208 c 0.43815,0 0.79375,0.3556 0.79375,0.79375 0,0.43815 -0.3556,0.79375 -0.79375,0.79375 -0.43815,0 -0.79375,-0.3556 -0.79375,-0.79375 0,-0.43815 0.3556,-0.79375 0.79375,-0.79375 z" style="fill:#ffdede;fill-opacity:1;stroke-width:.264583"/></g></g></svg>