<svg xmlns="http://www.w3.org/2000/svg" xmlns:svg="http://www.w3.org/2000/svg" id="svg8" width="16" height="16" version="1.1"><metadata id="metadata14"/><g id="g6" fill="#474747" color="#000" font-family="sans-serif" font-weight="400" white-space="normal" style="fill:#fff"><path style="line-height:normal;font-variant-ligatures:normal;font-variant-position:normal;font-variant-caps:normal;font-variant-numeric:normal;font-variant-alternates:normal;font-feature-settings:normal;text-indent:0;text-align:start;text-decoration-line:none;text-decoration-style:solid;text-decoration-color:#000;text-transform:none;text-orientation:mixed;shape-padding:0;isolation:auto;mix-blend-mode:normal;marker:none;fill:#fff" id="path2" d="M7.5 0C3.37 0 0 3.37 0 7.5S3.37 15 7.5 15 15 11.63 15 7.5 11.63 0 7.5 0zm0 2C10.55 2 13 4.45 13 7.5S10.55 13 7.5 13 2 10.55 2 7.5 4.45 2 7.5 2z" overflow="visible"/><path style="line-height:normal;font-variant-ligatures:normal;font-variant-position:normal;font-variant-caps:normal;font-variant-numeric:normal;font-variant-alternates:normal;font-feature-settings:normal;text-indent:0;text-align:start;text-decoration-line:none;text-decoration-style:solid;text-decoration-color:#000;text-transform:none;text-orientation:mixed;shape-padding:0;isolation:auto;mix-blend-mode:normal;marker:none;fill:#fff" id="path4" d="M4.428 3.963a.5.5 0 0 0-.34.863L7.2 7.871A.5.5 0 0 0 7.686 8H10.5a.5.5 0 1 0 0-1H7.738l-2.95-2.889a.5.5 0 0 0-.36-.148z" overflow="visible"/></g></svg>