<svg xmlns="http://www.w3.org/2000/svg" xmlns:svg="http://www.w3.org/2000/svg" id="svg7384" width="16" height="16" version="1.1" style="enable-background:new"><metadata id="metadata90"/><title id="title8473">Gnome Symbolic Icons</title><path id="path10839-9" d="m 4,4 h 1 c 0.01037,-1.2e-4 0.02079,-4.6e-4 0.03125,0 0.254951,0.0112 0.50987,0.12858 0.6875,0.3125 L 8,6.59375 10.3125,4.3125 C 10.578125,4.082 10.759172,4.007 11,4 h 1 v 1 c 0,0.28647 -0.03434,0.55065 -0.25,0.75 l -2.28125,2.28125 2.25,2.25 C 11.906938,10.46942 11.999992,10.7347 12,11 v 1 h -1 c -0.265301,-10e-6 -0.530586,-0.0931 -0.71875,-0.28125 L 8,9.4375 5.71875,11.71875 C 5.530586,11.90694 5.26529,12 5,12 H 4 v -1 c -3e-6,-0.26529 0.09306,-0.53058 0.28125,-0.71875 L 6.5625,8.03125 4.28125,5.75 C 4.070508,5.55537 3.97809,5.28075 4,5 Z" style="color:#bebebe;font-style:normal;font-variant:normal;font-weight:400;font-stretch:normal;font-size:medium;line-height:normal;font-family:'Andale Mono';-inkscape-font-specification:'Andale Mono';text-indent:0;text-align:start;text-decoration:none;text-decoration-line:none;letter-spacing:normal;word-spacing:normal;text-transform:none;writing-mode:lr-tb;direction:ltr;text-anchor:start;display:inline;overflow:visible;visibility:visible;fill:#ccc;fill-opacity:1;fill-rule:nonzero;stroke:none;stroke-width:1.78124988;marker:none;enable-background:new"/></svg>