<svg xmlns="http://www.w3.org/2000/svg" xmlns:osb="http://www.openswatchbook.org/uri/2009/osb" xmlns:svg="http://www.w3.org/2000/svg" xmlns:xlink="http://www.w3.org/1999/xlink" id="svg2" width="600" height="200" version="1.1" viewBox="0 0 600 200"><defs id="defs4"><linearGradient id="selected_bg_color" osb:paint="solid"><stop id="stop4407" offset="0" style="stop-color:#5294e2;stop-opacity:1"/></linearGradient><linearGradient id="selected_fg_color" osb:paint="solid"><stop id="stop4402" offset="0" style="stop-color:#ffffffgit;stop-opacity:1"/></linearGradient><linearGradient id="header_bg" osb:paint="solid"><stop id="stop4877" offset="0" style="stop-color:#1b2224;stop-opacity:1"/></linearGradient><linearGradient id="selected_bg_color-6" osb:paint="solid"><stop id="stop4421" offset="0" style="stop-color:#2eb398;stop-opacity:1"/></linearGradient></defs><metadata id="metadata7"/><g id="layer1" transform="translate(5,-564.36215)"><g id="title-1-active" transform="matrix(0.17857143,0,0,1,381.10714,60.999997)"><rect style="opacity:1;fill:#fff;fill-opacity:1;stroke:none;stroke-width:1.31158;stroke-linecap:butt;stroke-linejoin:round;stroke-miterlimit:4;stroke-dasharray:none;stroke-dashoffset:0;stroke-opacity:1" id="rect1466" width="34" height="34" x="5" y="554.362"/></g><use id="title-2-active" width="100%" height="100%" x="0" y="0" transform="translate(7)" xlink:href="#title-1-active"/><use id="title-3-active" width="100%" height="100%" x="0" y="0" transform="translate(14)" xlink:href="#title-1-active"/><use id="title-4-active" width="100%" height="100%" x="0" y="0" transform="translate(21)" xlink:href="#title-1-active"/><use id="title-5-active" width="100%" height="100%" x="0" y="0" transform="translate(28)" xlink:href="#title-1-active"/><use id="title-1-inactive" width="100%" height="100%" x="0" y="0" transform="translate(35)" xlink:href="#title-1-active"/><use id="title-2-inactive" width="100%" height="100%" x="0" y="0" transform="translate(42)" xlink:href="#title-1-active"/><use id="title-3-inactive" width="100%" height="100%" x="0" y="0" transform="translate(49)" xlink:href="#title-1-active"/><use id="title-4-inactive" width="100%" height="100%" x="0" y="0" transform="translate(56)" xlink:href="#title-1-active"/><use id="title-5-inactive" width="100%" height="100%" x="0" y="0" transform="translate(63)" xlink:href="#title-1-active"/><g style="opacity:1" id="top-left-active" transform="translate(377,-73.000003)"><path style="opacity:1;fill:#fff;fill-opacity:1;stroke:none;stroke-width:1;stroke-linecap:butt;stroke-linejoin:round;stroke-miterlimit:4;stroke-dasharray:none;stroke-dashoffset:0;stroke-opacity:1" id="rect4138-9" d="m 5,731.36215 -2e-7,29 H 12.999999 L 13,726.36218 h -2 l -1,-3e-5 -2e-7,1.00001 L 8,727.36215 l -2e-7,1.00001 L 7,728.36215 l -2e-7,1.00001 L 6,729.36215 l -2e-7,2.00001 z"/></g><use id="top-left-inactive" width="100%" height="100%" x="0" y="0" transform="translate(10)" xlink:href="#top-left-active"/><use id="top-right-active" width="100%" height="100%" x="0" y="0" transform="matrix(-1,0,0,1,792,3.1884693e-8)" xlink:href="#top-left-active"/><use id="top-right-inactive" width="100%" height="100%" x="0" y="0" transform="matrix(-1,0,0,1,802,3.1884693e-8)" xlink:href="#top-left-active"/><g id="left-active" transform="translate(384,-68.999963)"><rect style="opacity:1;fill:#fff;fill-opacity:1;stroke:none;stroke-width:1;stroke-linecap:butt;stroke-linejoin:round;stroke-miterlimit:4;stroke-dasharray:none;stroke-dashoffset:0;stroke-opacity:1" id="rect4138-3" width="2" height="16" x="-48" y="734.362" transform="scale(-1,1)"/></g><g id="left-inactive" transform="translate(389,-68.999963)"><rect id="rect1448" width="2" height="16" x="-48" y="734.362" transform="scale(-1,1)" style="opacity:1;fill:#fff;fill-opacity:1;stroke:none;stroke-width:1;stroke-linecap:butt;stroke-linejoin:round;stroke-miterlimit:4;stroke-dasharray:none;stroke-dashoffset:0;stroke-opacity:1"/></g><g id="right-inactive" transform="matrix(-1,0,0,1,493,-68.999963)"><rect id="rect1454" width="2" height="16" x="-48" y="734.362" transform="scale(-1,1)" style="opacity:1;fill:#fff;fill-opacity:1;stroke:none;stroke-width:1;stroke-linecap:butt;stroke-linejoin:round;stroke-miterlimit:4;stroke-dasharray:none;stroke-dashoffset:0;stroke-opacity:1"/></g><g id="right-active" transform="matrix(-1,0,0,1,488,-68.999963)"><rect style="opacity:1;fill:#fff;fill-opacity:1;stroke:none;stroke-width:1;stroke-linecap:butt;stroke-linejoin:round;stroke-miterlimit:4;stroke-dasharray:none;stroke-dashoffset:0;stroke-opacity:1" id="rect1460" width="2" height="16" x="-48" y="734.362" transform="scale(-1,1)"/></g><g id="bottom-left-active" transform="translate(361,-70.999993)"><path style="opacity:1;fill:#fff;fill-opacity:1;stroke:none;stroke-width:.666667;stroke-linecap:butt;stroke-linejoin:round;stroke-miterlimit:4;stroke-dasharray:none;stroke-dashoffset:0;stroke-opacity:1" id="path1472" d="m 98,730.36203 h -2 v 9.00012 h 1 v 1 l 9,-1.2e-4 v -2 l -8,1.2e-4 z"/></g><g id="bottom-left-inactive" transform="translate(361,-58.999993)"><path id="path1475" d="m 98,730.36203 h -2 v 9.00012 h 1 v 1 l 9,-1.2e-4 v -2 l -8,1.2e-4 z" style="opacity:1;fill:#fff;fill-opacity:1;stroke:none;stroke-width:.666667;stroke-linecap:butt;stroke-linejoin:round;stroke-miterlimit:4;stroke-dasharray:none;stroke-dashoffset:0;stroke-opacity:1"/></g><g id="bottom-right-inactive" transform="matrix(-1,0,0,1,593,-58.999993)"><path style="opacity:1;fill:#fff;fill-opacity:1;stroke:none;stroke-width:.666667;stroke-linecap:butt;stroke-linejoin:round;stroke-miterlimit:4;stroke-dasharray:none;stroke-dashoffset:0;stroke-opacity:1" id="path1485" d="m 98,730.36203 h -2 v 9.00012 h 1 v 1 l 9,-1.2e-4 v -2 l -8,1.2e-4 z"/></g><g id="bottom-right-active" transform="matrix(-1,0,0,1,593,-70.999993)"><path id="path1493" d="m 98,730.36203 h -2 v 9.00012 h 1 v 1 l 9,-1.2e-4 v -2 l -8,1.2e-4 z" style="opacity:1;fill:#fff;fill-opacity:1;stroke:none;stroke-width:.666667;stroke-linecap:butt;stroke-linejoin:round;stroke-miterlimit:4;stroke-dasharray:none;stroke-dashoffset:0;stroke-opacity:1"/></g><g id="bottom-active" transform="matrix(0,-1,-1,0,1219.3621,715.36217)"><rect style="opacity:1;fill:#fff;fill-opacity:1;stroke:none;stroke-width:1;stroke-linecap:butt;stroke-linejoin:round;stroke-miterlimit:4;stroke-dasharray:none;stroke-dashoffset:0;stroke-opacity:1" id="rect1501" width="2" height="16" x="-48" y="734.362" transform="scale(-1,1)"/></g><g id="bottom-inactive" transform="matrix(0,-1,-1,0,1219.3621,727.36217)"><rect id="rect1507" width="2" height="16" x="-48" y="734.362" transform="scale(-1,1)" style="opacity:1;fill:#fff;fill-opacity:1;stroke:none;stroke-width:1;stroke-linecap:butt;stroke-linejoin:round;stroke-miterlimit:4;stroke-dasharray:none;stroke-dashoffset:0;stroke-opacity:1"/></g><g id="hide-prelight" transform="translate(29,36.000017)"><g id="use4222" transform="translate(33,32.999977)"><rect style="opacity:1;fill:#fff;fill-opacity:1;stroke:none;stroke-width:1.31158;stroke-linecap:butt;stroke-linejoin:round;stroke-miterlimit:4;stroke-dasharray:none;stroke-dashoffset:0;stroke-opacity:1" id="rect1496" width="34" height="34" x="5" y="554.362"/></g><path id="path2-9" d="m 55.000106,616.36213 c 6.627307,0 11.999894,-5.37257 11.999894,-12 0,-6.62742 -5.372587,-12 -11.999894,-12 -6.627502,0 -12.000106,5.37258 -12.000106,12 0,6.62743 5.372604,12 12.000106,12" style="opacity:.15;fill:#000;fill-opacity:1;fill-rule:evenodd;stroke:none;stroke-width:1.71428"/><path id="path8-3" d="m 51,605.36215 h 8 v 2 h -8 z" style="opacity:.6;fill:#000"/></g><g id="maximize-prelight" transform="translate(29,41.000017)"><g id="use4226" transform="translate(33,65.999977)"><rect style="opacity:1;fill:#fff;fill-opacity:1;stroke:none;stroke-width:1.31158;stroke-linecap:butt;stroke-linejoin:round;stroke-miterlimit:4;stroke-dasharray:none;stroke-dashoffset:0;stroke-opacity:1" id="rect1502" width="34" height="34" x="5" y="554.362"/></g><g style="enable-background:new" id="g4769" transform="translate(40,625.36218)"><g id="layer1-64" transform="translate(0,-1028.3622)"><g id="titlebutton-min-hover" transform="translate(-480,1218)" style="display:inline"><rect style="display:inline;opacity:1;fill:none;fill-opacity:1;stroke:none;stroke-width:1;stroke-linecap:butt;stroke-linejoin:miter;stroke-miterlimit:4;stroke-dasharray:none;stroke-dashoffset:0;stroke-opacity:0" id="rect17883-11" width="16" height="16" x="484" y="-185.638"/></g></g></g><path id="path2-5" d="m 55.000106,649.36213 c 6.627305,0 11.999894,-5.37257 11.999894,-12 0,-6.62742 -5.372589,-12 -11.999894,-12 -6.627502,0 -12.000106,5.37258 -12.000106,12 0,6.62743 5.372604,12 12.000106,12" style="opacity:.15;fill:#000;fill-opacity:1;fill-rule:evenodd;stroke:none;stroke-width:1.71428"/><path id="path8-6" d="m 51,633.36216 v 8 h 8 v -8 z m 2,2 h 4 v 4 h -4 z" style="opacity:.6;fill:#000"/></g><g id="maximize-toggled-prelight" transform="translate(29,47.000027)"><g id="use1767" transform="translate(33,98.999964)"><rect style="opacity:1;fill:#fff;fill-opacity:1;stroke:none;stroke-width:1.31158;stroke-linecap:butt;stroke-linejoin:round;stroke-miterlimit:4;stroke-dasharray:none;stroke-dashoffset:0;stroke-opacity:1" id="rect1508" width="34" height="34" x="5" y="554.362"/></g><g id="g1797" transform="translate(40,658.36217)" style="enable-background:new"><g id="g1795" transform="translate(0,-1028.3622)"><g style="display:inline" id="g1793" transform="translate(-509,1218)"><rect id="rect1791" width="16" height="16" x="513" y="-185.638" style="display:inline;opacity:1;fill:none;fill-opacity:1;stroke:none;stroke-width:1;stroke-linecap:butt;stroke-linejoin:miter;stroke-miterlimit:4;stroke-dasharray:none;stroke-dashoffset:0;stroke-opacity:0"/></g></g></g><path style="opacity:.15;fill:#000;fill-opacity:1;fill-rule:evenodd;stroke:none;stroke-width:1.71429" id="path1799" d="m 55.000135,682.36215 c 6.627307,0 11.999894,-5.37258 11.999894,-12 0,-6.62742 -5.372587,-12 -11.999894,-12 -6.627502,0 -12.000106,5.37258 -12.000106,12 0,6.62742 5.372604,12 12.000106,12"/><path id="path8-7" d="m 52,667.36215 v 6 h 6 v -6 z m 2,2 h 2 v 2 h -2 z" style="opacity:.6;fill:#000"/></g><g id="hide-pressed" transform="translate(44,36.000017)"><g id="use4228" transform="translate(66,32.999977)"><rect style="opacity:1;fill:#fff;fill-opacity:1;stroke:none;stroke-width:1.31158;stroke-linecap:butt;stroke-linejoin:round;stroke-miterlimit:4;stroke-dasharray:none;stroke-dashoffset:0;stroke-opacity:1" id="rect1514" width="34" height="34" x="5" y="554.362"/></g><g style="enable-background:new" id="g4634" transform="translate(73,592.36218)"><g id="layer1-69" transform="translate(0,-1028.3622)"><g id="titlebutton-max-active" transform="translate(-408,1218)" style="display:inline"><rect style="display:inline;opacity:1;fill:none;fill-opacity:1;stroke:none;stroke-width:1;stroke-linecap:butt;stroke-linejoin:miter;stroke-miterlimit:4;stroke-dasharray:none;stroke-dashoffset:0;stroke-opacity:0" id="rect17883-79" width="16" height="16" x="412" y="-185.638"/></g></g></g><path style="opacity:.3;fill:#000;fill-opacity:1;fill-rule:evenodd;stroke:none;stroke-width:1.71428" id="path1431" d="m 88.000106,616.36213 c 6.627307,0 11.999894,-5.37257 11.999894,-12 0,-6.62742 -5.372587,-12 -11.999894,-12 -6.627502,0 -12.000105,5.37258 -12.000105,12 0,6.62743 5.372604,12 12.000105,12"/><path style="opacity:.6;fill:#000" id="path1433" d="m 84,605.36215 h 8 v 2 h -8 z"/></g><g id="maximize-pressed" transform="translate(44,41.000017)"><g id="use4236" transform="translate(66,65.999977)"><rect style="opacity:1;fill:#fff;fill-opacity:1;stroke:none;stroke-width:1.31158;stroke-linecap:butt;stroke-linejoin:round;stroke-miterlimit:4;stroke-dasharray:none;stroke-dashoffset:0;stroke-opacity:1" id="rect1520" width="34" height="34" x="5" y="554.362"/></g><g style="enable-background:new" id="g4833" transform="translate(73,625.36218)"><g id="layer1-22" transform="translate(0,-1028.3622)"><g id="titlebutton-min-active" transform="translate(-379,1218)" style="display:inline"><rect id="rect17883-79-9" width="16" height="16" x="383" y="-185.638" style="display:inline;opacity:1;fill:none;fill-opacity:1;stroke:none;stroke-width:1;stroke-linecap:butt;stroke-linejoin:miter;stroke-miterlimit:4;stroke-dasharray:none;stroke-dashoffset:0;stroke-opacity:0"/></g></g></g><path style="opacity:.3;fill:#000;fill-opacity:1;fill-rule:evenodd;stroke:none;stroke-width:1.71429" id="path1435" d="m 88.000135,649.36216 c 6.627306,0 11.999895,-5.37257 11.999895,-12 0,-6.62743 -5.372589,-12 -11.999895,-12 -6.627503,0 -12.000105,5.37257 -12.000105,12 0,6.62743 5.372602,12 12.000105,12"/><path style="opacity:.6;fill:#000" id="path1437" d="m 84,633.36216 v 8 h 8 v -8 z m 2,2 h 4 v 4 h -4 z"/></g><g id="maximize-toggled-pressed" transform="translate(44,47.000027)"><g id="use1701" transform="translate(66,98.999964)"><rect style="opacity:1;fill:#fff;fill-opacity:1;stroke:none;stroke-width:1.31158;stroke-linecap:butt;stroke-linejoin:round;stroke-miterlimit:4;stroke-dasharray:none;stroke-dashoffset:0;stroke-opacity:1" id="rect1526" width="34" height="34" x="5" y="554.362"/></g><g id="g1735" transform="translate(73,658.36217)" style="enable-background:new"><g id="g1733" transform="translate(0,-1028.3622)"><g style="display:inline" id="g1731" transform="translate(-408,1218)"><rect id="rect1729" width="16" height="16" x="412" y="-185.638" style="display:inline;opacity:1;fill:none;fill-opacity:1;stroke:none;stroke-width:1;stroke-linecap:butt;stroke-linejoin:miter;stroke-miterlimit:4;stroke-dasharray:none;stroke-dashoffset:0;stroke-opacity:0"/></g></g></g><path id="path1439" d="m 88.000103,682.36211 c 6.627306,0 11.999897,-5.37257 11.999897,-11.99999 0,-6.62743 -5.372591,-12 -11.999897,-12 -6.627503,0 -12.000105,5.37257 -12.000105,12 0,6.62742 5.372604,11.99999 12.000105,11.99999" style="opacity:.3;fill:#000;fill-opacity:1;fill-rule:evenodd;stroke:none;stroke-width:1.71428"/><path style="opacity:.6;fill:#000" id="path1441" d="m 85,667.36215 v 6 h 6 v -6 z m 2,2 h 2 v 2 h -2 z"/></g><g id="menu-prelight" transform="translate(-3,17.999997)"><g id="g2799" transform="translate(250,-32.999949)"><g id="use2779" transform="translate(0,32.999977)"><rect style="opacity:1;fill:#fff;fill-opacity:1;stroke:none;stroke-width:1.31158;stroke-linecap:butt;stroke-linejoin:round;stroke-miterlimit:4;stroke-dasharray:none;stroke-dashoffset:0;stroke-opacity:1" id="rect1563" width="34" height="34" x="5" y="554.362"/></g><g id="g2793" transform="translate(7,592.36218)" style="enable-background:new"><g id="g2791" transform="translate(0,-1028.3622)"><g id="g2789" transform="translate(-612,1218)" style="display:inline;opacity:.8"><rect id="rect2787" width="16" height="16" x="616" y="-185.638" style="display:inline;opacity:1;fill:none;fill-opacity:1;stroke:none;stroke-width:1;stroke-linecap:butt;stroke-linejoin:miter;stroke-miterlimit:4;stroke-dasharray:none;stroke-dashoffset:0;stroke-opacity:0"/></g></g></g><g style="enable-background:new" id="g2797" transform="translate(7,-436.00004)"><path style="opacity:.15;fill:#000;fill-opacity:1;fill-rule:evenodd;stroke:none;stroke-width:1.71429" id="path2795" d="m 15.000106,1052.3622 c 6.627306,0 11.999894,-5.3727 11.999894,-12.0001 0,-6.6273 -5.372588,-12 -11.999894,-12 -6.6275021,0 -12.0001058,5.3727 -12.0001058,12 0,6.6274 5.3726037,12.0001 12.0001058,12.0001"/></g></g><circle style="opacity:.6;fill:#000" id="circle2801" cx="272" cy="571.362" r="2"/></g><g id="shade-prelight" transform="translate(-3,22.999997)"><g id="g2825" transform="translate(250,2.0000522)"><g id="use2805" transform="translate(0,32.999977)"><rect style="opacity:1;fill:#fff;fill-opacity:1;stroke:none;stroke-width:1.31158;stroke-linecap:butt;stroke-linejoin:round;stroke-miterlimit:4;stroke-dasharray:none;stroke-dashoffset:0;stroke-opacity:1" id="rect1569" width="34" height="34" x="5" y="554.362"/></g><g style="enable-background:new" id="g2819" transform="translate(7,592.36218)"><g id="g2817" transform="translate(0,-1028.3622)"><g style="display:inline;opacity:.8" id="g2815" transform="translate(-612,1218)"><rect style="display:inline;opacity:1;fill:none;fill-opacity:1;stroke:none;stroke-width:1;stroke-linecap:butt;stroke-linejoin:miter;stroke-miterlimit:4;stroke-dasharray:none;stroke-dashoffset:0;stroke-opacity:0" id="rect2813" width="16" height="16" x="616" y="-185.638"/></g></g></g><g id="g2823" transform="translate(7,-436.00004)" style="enable-background:new"><path id="path2821" d="m 15.000176,1052.3622 c 6.627306,0 11.999894,-5.3726 11.999894,-12 0,-6.6275 -5.372588,-12 -11.999894,-12 -6.6275023,0 -12.0001059,5.3725 -12.0001059,12 0,6.6274 5.3726036,12 12.0001059,12" style="opacity:.15;fill:#000;fill-opacity:1;fill-rule:evenodd;stroke:none;stroke-width:1.71429"/></g></g><path style="opacity:.6;fill:#000" id="path2827" d="m 266,608.36215 1.41,1.41 4.59,-4.59 4.59,4.59 1.41,-1.41 -6,-6 z"/></g><g id="shade-toggled-prelight" transform="translate(-3,24.000057)"><g id="g2851" transform="translate(250,37.000051)"><g id="use2831" transform="translate(0,32.999977)"><rect style="opacity:1;fill:#fff;fill-opacity:1;stroke:none;stroke-width:1.31158;stroke-linecap:butt;stroke-linejoin:round;stroke-miterlimit:4;stroke-dasharray:none;stroke-dashoffset:0;stroke-opacity:1" id="rect1575" width="34" height="34" x="5" y="554.362"/></g><g id="g2845" transform="translate(7,592.36218)" style="enable-background:new"><g id="g2843" transform="translate(0,-1028.3622)"><g id="g2841" transform="translate(-612,1218)" style="display:inline;opacity:.8"><rect id="rect2839" width="16" height="16" x="616" y="-185.638" style="display:inline;opacity:1;fill:none;fill-opacity:1;stroke:none;stroke-width:1;stroke-linecap:butt;stroke-linejoin:miter;stroke-miterlimit:4;stroke-dasharray:none;stroke-dashoffset:0;stroke-opacity:0"/></g></g></g><g style="enable-background:new" id="g2849" transform="translate(7,-436.00004)"><path style="opacity:.15;fill:#000;fill-opacity:1;fill-rule:evenodd;stroke:none;stroke-width:1.71429" id="path2847" d="m 15.000176,1052.3622 c 6.627306,0 11.999894,-5.3726 11.999894,-12 0,-6.6275 -5.372588,-12 -11.999894,-12 -6.6275023,0 -12.0001059,5.3725 -12.0001059,12 0,6.6274 5.3726036,12 12.0001059,12"/></g></g><path id="path2853" d="m 266,639.36215 1.41,-1.41 4.59,4.59 4.59,-4.59 1.41,1.41 -6,6 z" style="opacity:.6;fill:#000"/></g><g id="stick-prelight" transform="translate(-3,27.590057)"><g id="g2877" transform="translate(250,71.410051)"><g id="use2857" transform="translate(0,32.999977)"><rect style="opacity:1;fill:#fff;fill-opacity:1;stroke:none;stroke-width:1.31158;stroke-linecap:butt;stroke-linejoin:round;stroke-miterlimit:4;stroke-dasharray:none;stroke-dashoffset:0;stroke-opacity:1" id="rect1581" width="34" height="34" x="5" y="554.362"/></g><g style="enable-background:new" id="g2871" transform="translate(7,592.36218)"><g id="g2869" transform="translate(0,-1028.3622)"><g style="display:inline;opacity:.8" id="g2867" transform="translate(-612,1218)"><rect style="display:inline;opacity:1;fill:none;fill-opacity:1;stroke:none;stroke-width:1;stroke-linecap:butt;stroke-linejoin:miter;stroke-miterlimit:4;stroke-dasharray:none;stroke-dashoffset:0;stroke-opacity:0" id="rect2865" width="16" height="16" x="616" y="-185.638"/></g></g></g><g id="g2875" transform="translate(7,-436.00004)" style="enable-background:new"><path id="path2873" d="m 15.000176,1052.3622 c 6.627306,0 11.999894,-5.3726 11.999894,-12 0,-6.6275 -5.372588,-12 -11.999894,-12 -6.6275023,0 -12.0001059,5.3725 -12.0001059,12 0,6.6274 5.3726036,12 12.0001059,12" style="opacity:.15;fill:#000;fill-opacity:1;fill-rule:evenodd;stroke:none;stroke-width:1.71429"/></g></g><path style="opacity:.6;fill:#000" id="path2879" d="m 272,669.77221 a 6,6 0 0 0 -6,6 6,6 0 0 0 6,6 6,6 0 0 0 6,-6 6,6 0 0 0 -6,-6 z m 0,2 a 4,4 0 0 1 4,4 4,4 0 0 1 -4,4 4,4 0 0 1 -4,-4 4,4 0 0 1 4,-4 z"/></g><g id="stick-toggled-prelight" transform="translate(-3,28.000057)"><g id="g2903" transform="translate(250,108.99999)"><g id="use2883" transform="translate(0,32.999977)"><rect style="opacity:1;fill:#fff;fill-opacity:1;stroke:none;stroke-width:1.31158;stroke-linecap:butt;stroke-linejoin:round;stroke-miterlimit:4;stroke-dasharray:none;stroke-dashoffset:0;stroke-opacity:1" id="rect1587" width="34" height="34" x="5" y="554.362"/></g><g id="g2897" transform="translate(7,592.36218)" style="enable-background:new"><g id="g2895" transform="translate(0,-1028.3622)"><g id="g2893" transform="translate(-612,1218)" style="display:inline;opacity:.8"><rect id="rect2891" width="16" height="16" x="616" y="-185.638" style="display:inline;opacity:1;fill:none;fill-opacity:1;stroke:none;stroke-width:1;stroke-linecap:butt;stroke-linejoin:miter;stroke-miterlimit:4;stroke-dasharray:none;stroke-dashoffset:0;stroke-opacity:0"/></g></g></g><g style="enable-background:new" id="g2901" transform="translate(7,-436.00004)"><path style="opacity:.15;fill:#000;fill-opacity:1;fill-rule:evenodd;stroke:none;stroke-width:1.71429" id="path2899" d="m 15.000106,1052.3622 c 6.627306,0 11.999894,-5.3727 11.999894,-12.0001 0,-6.6273 -5.372588,-12 -11.999894,-12 -6.6275021,0 -12.0001058,5.3727 -12.0001058,12 0,6.6274 5.3726037,12.0001 12.0001058,12.0001"/></g></g><path id="path2905" d="m 272,707.36215 a 6,6 0 0 0 -6,6 6,6 0 0 0 6,6 6,6 0 0 0 6,-6 6,6 0 0 0 -6,-6 z m 0,2 a 4,4 0 0 1 4,4 4,4 0 0 1 -4,4 4,4 0 0 1 -4,-4 4,4 0 0 1 4,-4 z" style="opacity:.6;fill:#000"/><circle id="circle2907" cx="272" cy="713.362" r="2" style="opacity:.6;fill:#000"/></g><g id="menu-pressed" transform="translate(38,17.999997)"><g id="g2931" transform="translate(250,-32.999949)"><g id="use2911" transform="translate(0,32.999977)"><rect style="opacity:1;fill:#fff;fill-opacity:1;stroke:none;stroke-width:1.31158;stroke-linecap:butt;stroke-linejoin:round;stroke-miterlimit:4;stroke-dasharray:none;stroke-dashoffset:0;stroke-opacity:1" id="rect1593" width="34" height="34" x="5" y="554.362"/></g><g style="enable-background:new" id="g2925" transform="translate(7,592.36218)"><g id="g2923" transform="translate(0,-1028.3622)"><g style="display:inline;opacity:.8" id="g2921" transform="translate(-612,1218)"><rect style="display:inline;opacity:1;fill:none;fill-opacity:1;stroke:none;stroke-width:1;stroke-linecap:butt;stroke-linejoin:miter;stroke-miterlimit:4;stroke-dasharray:none;stroke-dashoffset:0;stroke-opacity:0" id="rect2919" width="16" height="16" x="616" y="-185.638"/></g></g></g><g id="g2929" transform="translate(7,-436.00004)" style="enable-background:new"><path id="path2927" d="m 15.000106,1052.3622 c 6.627306,0 11.999894,-5.3727 11.999894,-12.0001 0,-6.6273 -5.372588,-12 -11.999894,-12 -6.6275021,0 -12.0001058,5.3727 -12.0001058,12 0,6.6274 5.3726037,12.0001 12.0001058,12.0001" style="opacity:.3;fill:#000;fill-opacity:1;fill-rule:evenodd;stroke:none;stroke-width:1.71429"/></g></g><circle id="circle2933" cx="272" cy="571.362" r="2" style="opacity:.6;fill:#000"/></g><g id="shade-pressed" transform="translate(38,22.999997)"><g id="g2957" transform="translate(250,2.0000522)"><g id="use2937" transform="translate(0,32.999977)"><rect style="opacity:1;fill:#fff;fill-opacity:1;stroke:none;stroke-width:1.31158;stroke-linecap:butt;stroke-linejoin:round;stroke-miterlimit:4;stroke-dasharray:none;stroke-dashoffset:0;stroke-opacity:1" id="rect1599" width="34" height="34" x="5" y="554.362"/></g><g id="g2951" transform="translate(7,592.36218)" style="enable-background:new"><g id="g2949" transform="translate(0,-1028.3622)"><g id="g2947" transform="translate(-612,1218)" style="display:inline;opacity:.8"><rect id="rect2945" width="16" height="16" x="616" y="-185.638" style="display:inline;opacity:1;fill:none;fill-opacity:1;stroke:none;stroke-width:1;stroke-linecap:butt;stroke-linejoin:miter;stroke-miterlimit:4;stroke-dasharray:none;stroke-dashoffset:0;stroke-opacity:0"/></g></g></g><g style="enable-background:new" id="g2955" transform="translate(7,-436.00004)"><path style="opacity:.3;fill:#000;fill-opacity:1;fill-rule:evenodd;stroke:none;stroke-width:1.71429" id="path2953" d="m 15.000176,1052.3622 c 6.627306,0 11.999894,-5.3726 11.999894,-12 0,-6.6275 -5.372588,-12 -11.999894,-12 -6.6275023,0 -12.0001059,5.3725 -12.0001059,12 0,6.6274 5.3726036,12 12.0001059,12"/></g></g><path id="path2959" d="m 266,608.36215 1.41,1.41 4.59,-4.59 4.59,4.59 1.41,-1.41 -6,-6 z" style="opacity:.6;fill:#000"/></g><g id="shade-toggled-pressed" transform="translate(38,24.000057)"><g id="g2983" transform="translate(250,37.000051)"><g id="use2963" transform="translate(0,32.999977)"><rect style="opacity:1;fill:#fff;fill-opacity:1;stroke:none;stroke-width:1.31158;stroke-linecap:butt;stroke-linejoin:round;stroke-miterlimit:4;stroke-dasharray:none;stroke-dashoffset:0;stroke-opacity:1" id="rect1605" width="34" height="34" x="5" y="554.362"/></g><g style="enable-background:new" id="g2977" transform="translate(7,592.36218)"><g id="g2975" transform="translate(0,-1028.3622)"><g style="display:inline;opacity:.8" id="g2973" transform="translate(-612,1218)"><rect style="display:inline;opacity:1;fill:none;fill-opacity:1;stroke:none;stroke-width:1;stroke-linecap:butt;stroke-linejoin:miter;stroke-miterlimit:4;stroke-dasharray:none;stroke-dashoffset:0;stroke-opacity:0" id="rect2971" width="16" height="16" x="616" y="-185.638"/></g></g></g><g id="g2981" transform="translate(7,-436.00004)" style="enable-background:new"><path id="path2979" d="m 15.000176,1052.3622 c 6.627306,0 11.999894,-5.3726 11.999894,-12 0,-6.6275 -5.372588,-12 -11.999894,-12 -6.6275023,0 -12.0001059,5.3725 -12.0001059,12 0,6.6274 5.3726036,12 12.0001059,12" style="opacity:.3;fill:#000;fill-opacity:1;fill-rule:evenodd;stroke:none;stroke-width:1.71429"/></g></g><path style="opacity:.6;fill:#000" id="path2985" d="m 266,639.36215 1.41,-1.41 4.59,4.59 4.59,-4.59 1.41,1.41 -6,6 z"/></g><g id="stick-pressed" transform="translate(38,27.590057)"><g id="g3009" transform="translate(250,71.410051)"><g id="use2989" transform="translate(0,32.999977)"><rect style="opacity:1;fill:#fff;fill-opacity:1;stroke:none;stroke-width:1.31158;stroke-linecap:butt;stroke-linejoin:round;stroke-miterlimit:4;stroke-dasharray:none;stroke-dashoffset:0;stroke-opacity:1" id="rect1611" width="34" height="34" x="5" y="554.362"/></g><g id="g3003" transform="translate(7,592.36218)" style="enable-background:new"><g id="g3001" transform="translate(0,-1028.3622)"><g id="g2999" transform="translate(-612,1218)" style="display:inline;opacity:.8"><rect id="rect2997" width="16" height="16" x="616" y="-185.638" style="display:inline;opacity:1;fill:none;fill-opacity:1;stroke:none;stroke-width:1;stroke-linecap:butt;stroke-linejoin:miter;stroke-miterlimit:4;stroke-dasharray:none;stroke-dashoffset:0;stroke-opacity:0"/></g></g></g><g style="enable-background:new" id="g3007" transform="translate(7,-436.00004)"><path style="opacity:.3;fill:#000;fill-opacity:1;fill-rule:evenodd;stroke:none;stroke-width:1.71429" id="path3005" d="m 15.000041,1052.362 c 6.627306,0 11.999894,-5.3725 11.999894,-12 0,-6.6274 -5.372588,-11.9999 -11.999894,-11.9999 -6.6275021,0 -12.0001058,5.3725 -12.0001058,11.9999 0,6.6275 5.3726037,12 12.0001058,12"/></g></g><path id="path3011" d="m 272,669.77221 a 6,6 0 0 0 -6,6 6,6 0 0 0 6,6 6,6 0 0 0 6,-6 6,6 0 0 0 -6,-6 z m 0,2 a 4,4 0 0 1 4,4 4,4 0 0 1 -4,4 4,4 0 0 1 -4,-4 4,4 0 0 1 4,-4 z" style="opacity:.6;fill:#000"/></g><g id="stick-toggled-pressed" transform="translate(38,28.000057)"><g id="g3035" transform="translate(250,108.99999)"><g id="use3015" transform="translate(0,32.999977)"><rect style="opacity:1;fill:#fff;fill-opacity:1;stroke:none;stroke-width:1.31158;stroke-linecap:butt;stroke-linejoin:round;stroke-miterlimit:4;stroke-dasharray:none;stroke-dashoffset:0;stroke-opacity:1" id="rect1617" width="34" height="34" x="5" y="554.362"/></g><g style="enable-background:new" id="g3029" transform="translate(7,592.36218)"><g id="g3027" transform="translate(0,-1028.3622)"><g style="display:inline;opacity:.8" id="g3025" transform="translate(-612,1218)"><rect style="display:inline;opacity:1;fill:none;fill-opacity:1;stroke:none;stroke-width:1;stroke-linecap:butt;stroke-linejoin:miter;stroke-miterlimit:4;stroke-dasharray:none;stroke-dashoffset:0;stroke-opacity:0" id="rect3023" width="16" height="16" x="616" y="-185.638"/></g></g></g><g id="g3033" transform="translate(7,-436.00004)" style="enable-background:new"><path id="path3031" d="m 15.000106,1052.3622 c 6.627306,0 11.999894,-5.3727 11.999894,-12.0001 0,-6.6273 -5.372588,-12 -11.999894,-12 -6.6275021,0 -12.0001058,5.3727 -12.0001058,12 0,6.6274 5.3726037,12.0001 12.0001058,12.0001" style="opacity:.3;fill:#000;fill-opacity:1;fill-rule:evenodd;stroke:none;stroke-width:1.71429"/></g></g><path style="opacity:.6;fill:#000" id="path3037" d="m 272,707.36215 a 6,6 0 0 0 -6,6 6,6 0 0 0 6,6 6,6 0 0 0 6,-6 6,6 0 0 0 -6,-6 z m 0,2 a 4,4 0 0 1 4,4 4,4 0 0 1 -4,4 4,4 0 0 1 -4,-4 4,4 0 0 1 4,-4 z"/><circle style="opacity:.6;fill:#000" id="circle3039" cx="272" cy="713.362" r="2"/></g><g id="close-prelight" transform="translate(29,30.999987)"><g id="use4214" transform="translate(33,-2.2617187e-5)"><rect style="opacity:1;fill:#fff;fill-opacity:1;stroke:none;stroke-width:1.31158;stroke-linecap:butt;stroke-linejoin:round;stroke-miterlimit:4;stroke-dasharray:none;stroke-dashoffset:0;stroke-opacity:1" id="rect1653" width="34" height="34" x="5" y="554.362"/></g><path id="path2-0" d="m 55.000106,583.36213 c 6.627305,0 11.999894,-5.37256 11.999894,-12 0,-6.62743 -5.372589,-12 -11.999894,-12 -6.627503,0 -12.000106,5.37257 -12.000106,12 0,6.62744 5.372603,12 12.000106,12" style="opacity:.15;fill:#000;fill-opacity:1;fill-rule:evenodd;stroke:none;stroke-width:1.71428"/><path id="path8" d="m 51.409999,566.36213 -1.409999,1.41 3.59,3.59 -3.59,3.59 1.409999,1.41 3.590001,-3.59 3.59,3.59 1.41,-1.41 -3.590001,-3.59 3.590001,-3.59 -1.41,-1.41 -3.59,3.59 z" style="opacity:.6;fill:#000"/></g><g id="close-pressed" transform="translate(44,30.999997)"><g id="use4216" transform="translate(66,-2.2617187e-5)"><rect style="opacity:1;fill:#fff;fill-opacity:1;stroke:none;stroke-width:1.31158;stroke-linecap:butt;stroke-linejoin:round;stroke-miterlimit:4;stroke-dasharray:none;stroke-dashoffset:0;stroke-opacity:1" id="rect1659" width="34" height="34" x="5" y="554.362"/></g><g style="enable-background:new" id="g4412" transform="translate(73,559.36218)"><g id="layer1-0" transform="translate(0,-1028.3622)"><g id="titlebutton-close-active" transform="translate(-437,1218)" style="display:inline"><rect style="display:inline;opacity:1;fill:none;fill-opacity:1;stroke:none;stroke-width:1;stroke-linecap:butt;stroke-linejoin:miter;stroke-miterlimit:4;stroke-dasharray:none;stroke-dashoffset:0;stroke-opacity:0" id="rect17883-02" width="16" height="16" x="441" y="-185.638"/></g></g></g><path id="path2" d="m 88.000106,583.36214 c 6.627306,0 11.999894,-5.37258 11.999894,-12.00001 0,-6.62742 -5.372588,-12 -11.999894,-12 -6.627502,0 -12.000106,5.37258 -12.000106,12 0,6.62743 5.372604,12.00001 12.000106,12.00001" style="opacity:.3;fill:#000;fill-opacity:1;fill-rule:evenodd;stroke:none;stroke-width:1.71428"/><path style="opacity:.6;fill:#000" id="path1443" d="m 84.409999,566.36213 -1.409999,1.41 3.59,3.59 -3.59,3.59 1.409999,1.41 3.590001,-3.59 3.59,3.59 1.41,-1.41 -3.590001,-3.59 3.590001,-3.59 -1.41,-1.41 -3.59,3.59 z"/></g><g id="hide-active" transform="translate(-18,36.000017)"><g id="use1381" transform="translate(33,32.999977)"><rect style="opacity:1;fill:#fff;fill-opacity:1;stroke:none;stroke-width:1.31158;stroke-linecap:butt;stroke-linejoin:round;stroke-miterlimit:4;stroke-dasharray:none;stroke-dashoffset:0;stroke-opacity:1" id="rect1665" width="34" height="34" x="5" y="554.362"/></g><path style="opacity:.6;fill:#000" id="path1385" d="m 51,605.36215 h 8 v 2 h -8 z"/></g><g id="maximize-active" transform="translate(-18,41.000017)"><g id="use1389" transform="translate(33,65.999977)"><rect style="opacity:1;fill:#fff;fill-opacity:1;stroke:none;stroke-width:1.31158;stroke-linecap:butt;stroke-linejoin:round;stroke-miterlimit:4;stroke-dasharray:none;stroke-dashoffset:0;stroke-opacity:1" id="rect1671" width="34" height="34" x="5" y="554.362"/></g><g id="g1419" transform="translate(40,625.36218)" style="enable-background:new"><g id="g1417" transform="translate(0,-1028.3622)"><g style="display:inline" id="g1415" transform="translate(-480,1218)"><rect id="rect1413" width="16" height="16" x="484" y="-185.638" style="display:inline;opacity:1;fill:none;fill-opacity:1;stroke:none;stroke-width:1;stroke-linecap:butt;stroke-linejoin:miter;stroke-miterlimit:4;stroke-dasharray:none;stroke-dashoffset:0;stroke-opacity:0"/></g></g></g><path style="opacity:.6;fill:#000" id="path1423" d="m 51,633.36216 v 8 h 8 v -8 z m 2,2 h 4 v 4 h -4 z"/></g><g id="maximize-toggled-active" transform="translate(-18,47.000027)"><g id="use1427" transform="translate(33,98.999964)"><rect style="opacity:1;fill:#fff;fill-opacity:1;stroke:none;stroke-width:1.31158;stroke-linecap:butt;stroke-linejoin:round;stroke-miterlimit:4;stroke-dasharray:none;stroke-dashoffset:0;stroke-opacity:1" id="rect1677" width="34" height="34" x="5" y="554.362"/></g><g style="enable-background:new" id="g1458" transform="translate(40,658.36217)"><g id="g1455" transform="translate(0,-1028.3622)"><g id="g1453" transform="translate(-509,1218)" style="display:inline"><rect style="display:inline;opacity:1;fill:none;fill-opacity:1;stroke:none;stroke-width:1;stroke-linecap:butt;stroke-linejoin:miter;stroke-miterlimit:4;stroke-dasharray:none;stroke-dashoffset:0;stroke-opacity:0" id="rect1451" width="16" height="16" x="513" y="-185.638"/></g></g></g><path style="opacity:.6;fill:#000" id="path1462" d="m 52,667.36215 v 6 h 6 v -6 z m 2,2 h 2 v 2 h -2 z"/></g><g id="close-active" transform="translate(-18,30.999987)"><g id="g1687" transform="translate(33,-2.2617187e-5)"><rect id="rect1683" width="34" height="34" x="5" y="554.362" style="opacity:1;fill:#fff;fill-opacity:1;stroke:none;stroke-width:1.31158;stroke-linecap:butt;stroke-linejoin:round;stroke-miterlimit:4;stroke-dasharray:none;stroke-dashoffset:0;stroke-opacity:1"/></g><path style="opacity:.6;fill:#000" id="path1691" d="m 51.409999,566.36213 -1.409999,1.41 3.59,3.59 -3.59,3.59 1.409999,1.41 3.590001,-3.59 3.59,3.59 1.41,-1.41 -3.590001,-3.59 3.590001,-3.59 -1.41,-1.41 -3.59,3.59 z"/></g><g id="hide-inactive" transform="translate(125,36.000017)"><g id="g1699" transform="translate(33,32.999977)"><rect id="rect1695" width="34" height="34" x="5" y="554.362" style="opacity:1;fill:#fff;fill-opacity:1;stroke:none;stroke-width:1.31158;stroke-linecap:butt;stroke-linejoin:round;stroke-miterlimit:4;stroke-dasharray:none;stroke-dashoffset:0;stroke-opacity:1"/></g><path id="path1701" d="m 51,605.36215 h 8 v 2 h -8 z" style="opacity:.25;fill:#000"/></g><g id="maximize-inactive" transform="translate(125,41.000017)"><g id="g1710" transform="translate(33,65.999977)"><rect id="rect1706" width="34" height="34" x="5" y="554.362" style="opacity:1;fill:#fff;fill-opacity:1;stroke:none;stroke-width:1.31158;stroke-linecap:butt;stroke-linejoin:round;stroke-miterlimit:4;stroke-dasharray:none;stroke-dashoffset:0;stroke-opacity:1"/></g><g style="enable-background:new" id="g1740" transform="translate(40,625.36218)"><g id="g1738" transform="translate(0,-1028.3622)"><g id="g1736" transform="translate(-480,1218)" style="display:inline"><rect style="display:inline;opacity:1;fill:none;fill-opacity:1;stroke:none;stroke-width:1;stroke-linecap:butt;stroke-linejoin:miter;stroke-miterlimit:4;stroke-dasharray:none;stroke-dashoffset:0;stroke-opacity:0" id="rect1734" width="16" height="16" x="484" y="-185.638"/></g></g></g><path id="path1742" d="m 51,633.36216 v 8 h 8 v -8 z m 2,2 h 4 v 4 h -4 z" style="opacity:.25;fill:#000"/></g><g id="maximize-toggled-inactive" transform="translate(125,47.000027)"><g id="g1750" transform="translate(33,98.999964)"><rect id="rect1746" width="34" height="34" x="5" y="554.362" style="opacity:1;fill:#fff;fill-opacity:1;stroke:none;stroke-width:1.31158;stroke-linecap:butt;stroke-linejoin:round;stroke-miterlimit:4;stroke-dasharray:none;stroke-dashoffset:0;stroke-opacity:1"/></g><g id="g1786" transform="translate(40,658.36217)" style="enable-background:new"><g id="g1778" transform="translate(0,-1028.3622)"><g style="display:inline" id="g1776" transform="translate(-509,1218)"><rect id="rect1774" width="16" height="16" x="513" y="-185.638" style="display:inline;opacity:1;fill:none;fill-opacity:1;stroke:none;stroke-width:1;stroke-linecap:butt;stroke-linejoin:miter;stroke-miterlimit:4;stroke-dasharray:none;stroke-dashoffset:0;stroke-opacity:0"/></g></g></g><path id="path1788" d="m 52,667.36215 v 6 h 6 v -6 z m 2,2 h 2 v 2 h -2 z" style="opacity:.25;fill:#000"/></g><g id="close-inactive" transform="translate(125,30.999987)"><g id="g1799" transform="translate(33,-2.2617187e-5)"><rect style="opacity:1;fill:#fff;fill-opacity:1;stroke:none;stroke-width:1.31158;stroke-linecap:butt;stroke-linejoin:round;stroke-miterlimit:4;stroke-dasharray:none;stroke-dashoffset:0;stroke-opacity:1" id="rect1793" width="34" height="34" x="5" y="554.362"/></g><path id="path1801" d="m 51.409999,566.36213 -1.409999,1.41 3.59,3.59 -3.59,3.59 1.409999,1.41 3.590001,-3.59 3.59,3.59 1.41,-1.41 -3.590001,-3.59 3.590001,-3.59 -1.41,-1.41 -3.59,3.59 z" style="opacity:.25;fill:#000"/></g><g id="menu-active" transform="translate(-45,17.999997)"><g id="g1829" transform="translate(250,-32.999949)"><g id="g1809" transform="translate(0,32.999977)"><rect id="rect1805" width="34" height="34" x="5" y="554.362" style="opacity:1;fill:#fff;fill-opacity:1;stroke:none;stroke-width:1.31158;stroke-linecap:butt;stroke-linejoin:round;stroke-miterlimit:4;stroke-dasharray:none;stroke-dashoffset:0;stroke-opacity:1"/></g><g style="enable-background:new" id="g1823" transform="translate(7,592.36218)"><g id="g1821" transform="translate(0,-1028.3622)"><g style="display:inline;opacity:.8" id="g1819" transform="translate(-612,1218)"><rect style="display:inline;opacity:1;fill:none;fill-opacity:1;stroke:none;stroke-width:1;stroke-linecap:butt;stroke-linejoin:miter;stroke-miterlimit:4;stroke-dasharray:none;stroke-dashoffset:0;stroke-opacity:0" id="rect1817" width="16" height="16" x="616" y="-185.638"/></g></g></g></g><circle id="circle1831" cx="272" cy="571.362" r="2" style="opacity:.6;fill:#000"/></g><g id="shade-active" transform="translate(-45,22.999997)"><g id="g1859" transform="translate(250,2.0000522)"><g id="g1839" transform="translate(0,32.999977)"><rect id="rect1835" width="34" height="34" x="5" y="554.362" style="opacity:1;fill:#fff;fill-opacity:1;stroke:none;stroke-width:1.31158;stroke-linecap:butt;stroke-linejoin:round;stroke-miterlimit:4;stroke-dasharray:none;stroke-dashoffset:0;stroke-opacity:1"/></g><g id="g1853" transform="translate(7,592.36218)" style="enable-background:new"><g id="g1851" transform="translate(0,-1028.3622)"><g id="g1849" transform="translate(-612,1218)" style="display:inline;opacity:.8"><rect id="rect1847" width="16" height="16" x="616" y="-185.638" style="display:inline;opacity:1;fill:none;fill-opacity:1;stroke:none;stroke-width:1;stroke-linecap:butt;stroke-linejoin:miter;stroke-miterlimit:4;stroke-dasharray:none;stroke-dashoffset:0;stroke-opacity:0"/></g></g></g></g><path id="path1861" d="m 266,608.36215 1.41,1.41 4.59,-4.59 4.59,4.59 1.41,-1.41 -6,-6 z" style="opacity:.6;fill:#000"/></g><g id="shade-toggled-active" transform="translate(-45,24.000057)"><g id="g1889" transform="translate(250,37.000051)"><g id="g1869" transform="translate(0,32.999977)"><rect id="rect1865" width="34" height="34" x="5" y="554.362" style="opacity:1;fill:#fff;fill-opacity:1;stroke:none;stroke-width:1.31158;stroke-linecap:butt;stroke-linejoin:round;stroke-miterlimit:4;stroke-dasharray:none;stroke-dashoffset:0;stroke-opacity:1"/></g><g style="enable-background:new" id="g1883" transform="translate(7,592.36218)"><g id="g1881" transform="translate(0,-1028.3622)"><g style="display:inline;opacity:.8" id="g1879" transform="translate(-612,1218)"><rect style="display:inline;opacity:1;fill:none;fill-opacity:1;stroke:none;stroke-width:1;stroke-linecap:butt;stroke-linejoin:miter;stroke-miterlimit:4;stroke-dasharray:none;stroke-dashoffset:0;stroke-opacity:0" id="rect1877" width="16" height="16" x="616" y="-185.638"/></g></g></g></g><path style="opacity:.6;fill:#000" id="path1891" d="m 266,639.36215 1.41,-1.41 4.59,4.59 4.59,-4.59 1.41,1.41 -6,6 z"/></g><g id="stick-active" transform="translate(-45,27.590057)"><g id="g1919" transform="translate(250,71.410051)"><g id="g1899" transform="translate(0,32.999977)"><rect id="rect1895" width="34" height="34" x="5" y="554.362" style="opacity:1;fill:#fff;fill-opacity:1;stroke:none;stroke-width:1.31158;stroke-linecap:butt;stroke-linejoin:round;stroke-miterlimit:4;stroke-dasharray:none;stroke-dashoffset:0;stroke-opacity:1"/></g><g id="g1913" transform="translate(7,592.36218)" style="enable-background:new"><g id="g1911" transform="translate(0,-1028.3622)"><g id="g1909" transform="translate(-612,1218)" style="display:inline;opacity:.8"><rect id="rect1907" width="16" height="16" x="616" y="-185.638" style="display:inline;opacity:1;fill:none;fill-opacity:1;stroke:none;stroke-width:1;stroke-linecap:butt;stroke-linejoin:miter;stroke-miterlimit:4;stroke-dasharray:none;stroke-dashoffset:0;stroke-opacity:0"/></g></g></g></g><path id="path1921" d="m 272,669.77221 a 6,6 0 0 0 -6,6 6,6 0 0 0 6,6 6,6 0 0 0 6,-6 6,6 0 0 0 -6,-6 z m 0,2 a 4,4 0 0 1 4,4 4,4 0 0 1 -4,4 4,4 0 0 1 -4,-4 4,4 0 0 1 4,-4 z" style="opacity:.6;fill:#000"/></g><g id="stick-toggled-active" transform="translate(-45,28.000057)"><g id="g1949" transform="translate(250,108.99999)"><g id="g1929" transform="translate(0,32.999977)"><rect id="rect1925" width="34" height="34" x="5" y="554.362" style="opacity:1;fill:#fff;fill-opacity:1;stroke:none;stroke-width:1.31158;stroke-linecap:butt;stroke-linejoin:round;stroke-miterlimit:4;stroke-dasharray:none;stroke-dashoffset:0;stroke-opacity:1"/></g><g style="enable-background:new" id="g1943" transform="translate(7,592.36218)"><g id="g1941" transform="translate(0,-1028.3622)"><g style="display:inline;opacity:.8" id="g1939" transform="translate(-612,1218)"><rect style="display:inline;opacity:1;fill:none;fill-opacity:1;stroke:none;stroke-width:1;stroke-linecap:butt;stroke-linejoin:miter;stroke-miterlimit:4;stroke-dasharray:none;stroke-dashoffset:0;stroke-opacity:0" id="rect1937" width="16" height="16" x="616" y="-185.638"/></g></g></g></g><path style="opacity:.6;fill:#000" id="path1951" d="m 272,707.36215 a 6,6 0 0 0 -6,6 6,6 0 0 0 6,6 6,6 0 0 0 6,-6 6,6 0 0 0 -6,-6 z m 0,2 a 4,4 0 0 1 4,4 4,4 0 0 1 -4,4 4,4 0 0 1 -4,-4 4,4 0 0 1 4,-4 z"/><circle style="opacity:.6;fill:#000" id="circle1953" cx="272" cy="713.362" r="2"/></g><g id="menu-inactive" transform="translate(80,17.999997)"><g id="g1981" transform="translate(250,-32.999949)"><g id="g1961" transform="translate(0,32.999977)"><rect style="opacity:1;fill:#fff;fill-opacity:1;stroke:none;stroke-width:1.31158;stroke-linecap:butt;stroke-linejoin:round;stroke-miterlimit:4;stroke-dasharray:none;stroke-dashoffset:0;stroke-opacity:1" id="rect1957" width="34" height="34" x="5" y="554.362"/></g><g id="g1975" transform="translate(7,592.36218)" style="enable-background:new"><g id="g1973" transform="translate(0,-1028.3622)"><g id="g1971" transform="translate(-612,1218)" style="display:inline;opacity:.8"><rect id="rect1969" width="16" height="16" x="616" y="-185.638" style="display:inline;opacity:1;fill:none;fill-opacity:1;stroke:none;stroke-width:1;stroke-linecap:butt;stroke-linejoin:miter;stroke-miterlimit:4;stroke-dasharray:none;stroke-dashoffset:0;stroke-opacity:0"/></g></g></g></g><circle style="opacity:.25;fill:#000" id="circle1983" cx="272" cy="571.362" r="2"/></g><g id="shade-inactive" transform="translate(80,22.999997)"><g id="g2011" transform="translate(250,2.0000522)"><g id="g1991" transform="translate(0,32.999977)"><rect style="opacity:1;fill:#fff;fill-opacity:1;stroke:none;stroke-width:1.31158;stroke-linecap:butt;stroke-linejoin:round;stroke-miterlimit:4;stroke-dasharray:none;stroke-dashoffset:0;stroke-opacity:1" id="rect1987" width="34" height="34" x="5" y="554.362"/></g><g style="enable-background:new" id="g2005" transform="translate(7,592.36218)"><g id="g2003" transform="translate(0,-1028.3622)"><g style="display:inline;opacity:.8" id="g2001" transform="translate(-612,1218)"><rect style="display:inline;opacity:1;fill:none;fill-opacity:1;stroke:none;stroke-width:1;stroke-linecap:butt;stroke-linejoin:miter;stroke-miterlimit:4;stroke-dasharray:none;stroke-dashoffset:0;stroke-opacity:0" id="rect1999" width="16" height="16" x="616" y="-185.638"/></g></g></g></g><path style="opacity:.25;fill:#000" id="path2013" d="m 266,608.36215 1.41,1.41 4.59,-4.59 4.59,4.59 1.41,-1.41 -6,-6 z"/></g><g id="shade-toggled-inactive" transform="translate(80,24.000057)"><g id="g2041" transform="translate(250,37.000051)"><g id="g2021" transform="translate(0,32.999977)"><rect style="opacity:1;fill:#fff;fill-opacity:1;stroke:none;stroke-width:1.31158;stroke-linecap:butt;stroke-linejoin:round;stroke-miterlimit:4;stroke-dasharray:none;stroke-dashoffset:0;stroke-opacity:1" id="rect2017" width="34" height="34" x="5" y="554.362"/></g><g id="g2035" transform="translate(7,592.36218)" style="enable-background:new"><g id="g2033" transform="translate(0,-1028.3622)"><g id="g2031" transform="translate(-612,1218)" style="display:inline;opacity:.8"><rect id="rect2029" width="16" height="16" x="616" y="-185.638" style="display:inline;opacity:1;fill:none;fill-opacity:1;stroke:none;stroke-width:1;stroke-linecap:butt;stroke-linejoin:miter;stroke-miterlimit:4;stroke-dasharray:none;stroke-dashoffset:0;stroke-opacity:0"/></g></g></g></g><path id="path2043" d="m 266,639.36215 1.41,-1.41 4.59,4.59 4.59,-4.59 1.41,1.41 -6,6 z" style="opacity:.25;fill:#000"/></g><g id="stick-inactive" transform="translate(80,27.590057)"><g id="g2071" transform="translate(250,71.410051)"><g id="g2051" transform="translate(0,32.999977)"><rect style="opacity:1;fill:#fff;fill-opacity:1;stroke:none;stroke-width:1.31158;stroke-linecap:butt;stroke-linejoin:round;stroke-miterlimit:4;stroke-dasharray:none;stroke-dashoffset:0;stroke-opacity:1" id="rect2047" width="34" height="34" x="5" y="554.362"/></g><g style="enable-background:new" id="g2065" transform="translate(7,592.36218)"><g id="g2063" transform="translate(0,-1028.3622)"><g style="display:inline;opacity:.8" id="g2061" transform="translate(-612,1218)"><rect style="display:inline;opacity:1;fill:none;fill-opacity:1;stroke:none;stroke-width:1;stroke-linecap:butt;stroke-linejoin:miter;stroke-miterlimit:4;stroke-dasharray:none;stroke-dashoffset:0;stroke-opacity:0" id="rect2059" width="16" height="16" x="616" y="-185.638"/></g></g></g></g><path style="opacity:.25;fill:#000" id="path2073" d="m 272,669.77221 a 6,6 0 0 0 -6,6 6,6 0 0 0 6,6 6,6 0 0 0 6,-6 6,6 0 0 0 -6,-6 z m 0,2 a 4,4 0 0 1 4,4 4,4 0 0 1 -4,4 4,4 0 0 1 -4,-4 4,4 0 0 1 4,-4 z"/></g><g id="stick-toggled-inactive" transform="translate(80,28.000057)"><g id="g2101" transform="translate(250,108.99999)"><g id="g2081" transform="translate(0,32.999977)"><rect style="opacity:1;fill:#fff;fill-opacity:1;stroke:none;stroke-width:1.31158;stroke-linecap:butt;stroke-linejoin:round;stroke-miterlimit:4;stroke-dasharray:none;stroke-dashoffset:0;stroke-opacity:1" id="rect2077" width="34" height="34" x="5" y="554.362"/></g><g id="g2095" transform="translate(7,592.36218)" style="enable-background:new"><g id="g2093" transform="translate(0,-1028.3622)"><g id="g2091" transform="translate(-612,1218)" style="display:inline;opacity:.8"><rect id="rect2089" width="16" height="16" x="616" y="-185.638" style="display:inline;opacity:1;fill:none;fill-opacity:1;stroke:none;stroke-width:1;stroke-linecap:butt;stroke-linejoin:miter;stroke-miterlimit:4;stroke-dasharray:none;stroke-dashoffset:0;stroke-opacity:0"/></g></g></g></g><path id="path2103" d="m 272,707.36215 a 6,6 0 0 0 -6,6 6,6 0 0 0 6,6 6,6 0 0 0 6,-6 6,6 0 0 0 -6,-6 z m 0,2 a 4,4 0 0 1 4,4 4,4 0 0 1 -4,4 4,4 0 0 1 -4,-4 4,4 0 0 1 4,-4 z" style="opacity:.25;fill:#000"/><circle id="circle2105" cx="272" cy="713.362" r="2" style="opacity:.25;fill:#000"/></g></g></svg>