<svg xmlns="http://www.w3.org/2000/svg" xmlns:svg="http://www.w3.org/2000/svg" id="svg6" width="28" height="28" version="1.0" style="enable-background:new"><metadata id="metadata12"/><circle style="opacity:.15;fill:#fff;fill-opacity:1;stroke:none;stroke-width:1.3066448;stroke-linecap:round;stroke-linejoin:round;stroke-miterlimit:4;stroke-dasharray:none;stroke-opacity:1;paint-order:normal" id="path816" cx="14" cy="14" r="14"/><g id="g4" transform="translate(2,-274)" style="fill:#fff"><path style="fill:#fff;paint-order:fill markers stroke" id="path2" d="m 12,6 a 6,6 0 0 0 -6,6 6,6 0 0 0 6,6 6,6 0 0 0 6,-6 6,6 0 0 0 -6,-6 z m 0,2 a 4,4 0 0 1 4,4 4,4 0 0 1 -4,4 4,4 0 0 1 -4,-4 4,4 0 0 1 4,-4 z" transform="translate(0,276)"/></g></svg>