<svg xmlns="http://www.w3.org/2000/svg" xmlns:svg="http://www.w3.org/2000/svg" id="svg6" width="24" height="24" enable-background="new" version="1.0"><metadata id="metadata12"/><circle style="opacity:.25;fill:#fff;fill-opacity:1;stroke:none;stroke-width:1.36226296;stroke-linecap:round;stroke-linejoin:round;stroke-miterlimit:4;stroke-dasharray:none;stroke-opacity:1;paint-order:normal" id="path822" cx="12" cy="12" r="12"/><g id="g4" fill="#fff" transform="translate(0,-276)"><path style="paint-order:fill markers stroke" id="path2" fill="#fff" d="m12 6a6 6 0 0 0-6 6 6 6 0 0 0 6 6 6 6 0 0 0 6-6 6 6 0 0 0-6-6zm0 2a4 4 0 0 1 4 4 4 4 0 0 1-4 4 4 4 0 0 1-4-4 4 4 0 0 1 4-4z" transform="translate(0,276)"/></g></svg>