<svg xmlns="http://www.w3.org/2000/svg" xmlns:svg="http://www.w3.org/2000/svg" id="svg120" width="150" height="150" version="1.1" viewBox="0 0 39.687 39.688"><g id="thumbnail-Dark"><g id="g1287" transform="translate(0,13.229334)"><rect style="fill:#e6e6e6;stroke-width:.435626;stroke-linecap:round;stroke-linejoin:round;stroke-miterlimit:2" id="rect1279" width="26.459" height="8.467" x="6.085" y="6.615"/><path style="opacity:.35;fill:#000;paint-order:stroke fill markers;filter:url(#filter1113)" id="path1281" fill="url(#linearGradient1094)" d="m 6.0854923,7.67315 23.8119997,-10e-6 c 0.87948,0 1.5875,0.70803 1.5875,1.5875 v 4.2333 l 1e-6,1.5875 H 6.0849933 v -1.5875 -4.2333 z" clip-path="url(#clipPath1121)"/><path style="fill:#2c2c2c;paint-order:stroke fill markers;fill-opacity:1" id="path1283" fill="url(#linearGradient1094)" d="m 6.0854923,7.67315 23.8119997,-10e-6 c 0.87948,0 1.5875,0.70803 1.5875,1.5875 v 4.2333 l 1e-6,1.5875 H 6.0849933 v -1.5875 -4.2333 z"/><path id="path1307" d="M 23.001953 79 L 23.001953 80 L 112.99805 80 C 116.32202 80 118.99805 82.676061 118.99805 86 L 118.99805 85 C 118.99805 81.676061 116.32202 79 112.99805 79 L 23.001953 79 z" transform="matrix(0.26458667,0,0,0.26458667,-5e-4,-13.229334)" style="fill:#fff;fill-opacity:1;stroke-width:3.77948;paint-order:stroke fill markers;opacity:.1"/></g><g id="g1293" transform="translate(-28.839947,7.9376041)" style="opacity:.8;fill:#fff"><path id="path1289" d="m 42.068808,20.108583 c 1.753497,0 3.175012,-1.42151 3.175012,-3.17504 0,-1.753527 -1.421515,-3.17504 -3.175012,-3.17504 -1.753549,0 -3.175068,1.421513 -3.175068,3.17504 0,1.75353 1.421519,3.17504 3.175068,3.17504" style="opacity:.15;fill:none;fill-opacity:1;fill-rule:evenodd;stroke:none;stroke-width:.453576"/><path id="path1291" d="m 41.010433,17.198135 h 2.116694 v 0.529174 h -2.116694 z" style="opacity:1;fill:#fff;stroke-width:.264587"/></g><g id="g1299" transform="translate(-21.696107,-2.1166942)" style="opacity:.8;fill:#fff"><path id="path1295" d="m 42.068808,30.162874 c 1.753496,0 3.175012,-1.421511 3.175012,-3.17504 0,-1.753527 -1.421516,-3.17504 -3.175012,-3.17504 -1.753549,0 -3.175068,1.421513 -3.175068,3.17504 0,1.753529 1.421519,3.17504 3.175068,3.17504" style="opacity:.15;fill:none;fill-opacity:1;fill-rule:evenodd;stroke:none;stroke-width:.453576"/><path id="path1297" d="m 41.010433,25.929495 v 2.116693 h 2.116694 v -2.116693 z m 0.529174,0.529173 h 1.058346 v 1.058347 h -1.058346 z" style="opacity:1;fill:#fff;stroke-width:.264587"/></g><g id="g1305" transform="translate(1.4314137,3.7042141)" style="opacity:.8;fill:#fff"><path id="path1301" d="m 26.085128,24.341973 c 1.753496,0 3.175012,-1.421507 3.175012,-3.17504 0,-1.753529 -1.421516,-3.17504 -3.175012,-3.17504 -1.753549,0 -3.175068,1.421511 -3.175068,3.17504 0,1.753533 1.421519,3.17504 3.175068,3.17504" style="opacity:.15;fill:none;fill-opacity:1;fill-rule:evenodd;stroke:none;stroke-width:.453576"/><path id="path1303" d="m 25.135233,19.844 -0.373067,0.373067 0.949867,0.949866 -0.949867,0.949866 0.373067,0.373068 0.949867,-0.949866 0.949866,0.949866 0.373067,-0.373068 -0.949866,-0.949866 0.949866,-0.949866 L 27.034966,19.844 26.0851,20.793866 Z" style="opacity:1;fill:#fff;stroke-width:.264587"/></g></g><metadata id="metadata124"/><defs id="defs21"><clipPath id="clipPath1084"><rect style="paint-order:stroke fill markers" id="rect2" width="26.458" height="8.467" x="6.35" y="262.34" fill="#fff" opacity=".15" rx=".087" ry=".078"/></clipPath><filter style="color-interpolation-filters:sRGB" id="filter1113" width="1.105" height="1.359" x="-.052" y="-.18"><feGaussianBlur id="feGaussianBlur1115" stdDeviation=".554"/></filter><clipPath id="clipPath1121" clipPathUnits="userSpaceOnUse"><rect style="fill:#e6e6e6;stroke-width:.435626;stroke-linecap:round;stroke-linejoin:round;stroke-miterlimit:2" id="rect1123" width="26.459" height="8.467" x="6.085" y="6.615"/></clipPath></defs><g id="thumbnail"><g id="g1130"><rect style="fill:#e6e6e6;stroke-width:.435626;stroke-linecap:round;stroke-linejoin:round;stroke-miterlimit:2" id="rect1083" width="26.459" height="8.467" x="6.085" y="6.615"/><path style="fill:#000;paint-order:stroke fill markers;filter:url(#filter1113);opacity:.35" id="path1087" fill="url(#linearGradient1094)" d="m 6.0854923,7.67315 23.8119997,-10e-6 c 0.87948,0 1.5875,0.70803 1.5875,1.5875 v 4.2333 l 1e-6,1.5875 H 6.0849933 v -1.5875 -4.2333 z" clip-path="url(#clipPath1121)"/><path style="fill:#fff;paint-order:stroke fill markers" id="path27" fill="url(#linearGradient1094)" d="m 6.0854923,7.67315 23.8119997,-10e-6 c 0.87948,0 1.5875,0.70803 1.5875,1.5875 v 4.2333 l 1e-6,1.5875 H 6.0849933 v -1.5875 -4.2333 z"/></g><g id="g1273" transform="translate(-28.839947,-5.2917297)" style="fill:#000;opacity:.65"><path id="path2-9" d="m 42.068808,20.108583 c 1.753497,0 3.175012,-1.42151 3.175012,-3.17504 0,-1.753527 -1.421515,-3.17504 -3.175012,-3.17504 -1.753549,0 -3.175068,1.421513 -3.175068,3.17504 0,1.75353 1.421519,3.17504 3.175068,3.17504" style="opacity:.15;fill:none;fill-opacity:1;fill-rule:evenodd;stroke:none;stroke-width:.453576"/><path id="path8-3" d="m 41.010433,17.198135 h 2.116694 v 0.529174 h -2.116694 z" style="opacity:1;fill:#000;stroke-width:.264587"/></g><g id="g1269" transform="translate(-21.696107,-15.346028)" style="fill:#000;opacity:.65"><path id="path2-5" d="m 42.068808,30.162874 c 1.753496,0 3.175012,-1.421511 3.175012,-3.17504 0,-1.753527 -1.421516,-3.17504 -3.175012,-3.17504 -1.753549,0 -3.175068,1.421513 -3.175068,3.17504 0,1.753529 1.421519,3.17504 3.175068,3.17504" style="opacity:.15;fill:none;fill-opacity:1;fill-rule:evenodd;stroke:none;stroke-width:.453576"/><path id="path8-6" d="m 41.010433,25.929495 v 2.116693 h 2.116694 v -2.116693 z m 0.529174,0.529173 h 1.058346 v 1.058347 h -1.058346 z" style="opacity:1;fill:#000;stroke-width:.264587"/></g><g id="g1277" transform="translate(1.4314137,-9.5251197)" style="fill:#000;opacity:.65"><path id="path2-0" d="m 26.085128,24.341973 c 1.753496,0 3.175012,-1.421507 3.175012,-3.17504 0,-1.753529 -1.421516,-3.17504 -3.175012,-3.17504 -1.753549,0 -3.175068,1.421511 -3.175068,3.17504 0,1.753533 1.421519,3.17504 3.175068,3.17504" style="opacity:.15;fill:none;fill-opacity:1;fill-rule:evenodd;stroke:none;stroke-width:.453576"/><path id="path8" d="m 25.135233,19.844 -0.373067,0.373067 0.949867,0.949866 -0.949867,0.949866 0.373067,0.373068 0.949867,-0.949866 0.949866,0.949866 0.373067,-0.373068 -0.949866,-0.949866 0.949866,-0.949866 L 27.034966,19.844 26.0851,20.793866 Z" style="opacity:1;fill:#000;stroke-width:.264587"/></g></g></svg>